<svg width="32" height="33" viewBox="0 0 32 33" fill="none" xmlns="http://www.w3.org/2000/svg">
<path d="M25.6249 6.87499C25.4595 6.70459 25.2617 6.56879 25.0433 6.47549C24.8249 6.38219 24.5901 6.33325 24.3525 6.33152C24.115 6.32978 23.8795 6.37529 23.6597 6.46538C23.4399 6.55548 23.2403 6.68837 23.0723 6.85633C22.9043 7.0243 22.7714 7.22397 22.6813 7.44376C22.5912 7.66354 22.5457 7.89904 22.5475 8.13657C22.5492 8.37409 22.5982 8.6089 22.6915 8.82735C22.7848 9.04579 22.9206 9.2435 23.0909 9.40899C23.4286 9.73695 23.8818 9.91886 24.3525 9.91542C24.8232 9.91198 25.2737 9.72346 25.6066 9.39061C25.9394 9.05775 26.1279 8.60729 26.1314 8.13657C26.1348 7.66585 25.9529 7.21268 25.6249 6.87499ZM25.6249 15.233C25.4595 15.0626 25.2617 14.9268 25.0433 14.8335C24.8249 14.7402 24.5901 14.6913 24.3525 14.6895C24.115 14.6878 23.8795 14.7333 23.6597 14.8234C23.4399 14.9135 23.2403 15.0464 23.0723 15.2143C22.9043 15.3823 22.7714 15.582 22.6813 15.8018C22.5912 16.0215 22.5457 16.257 22.5475 16.4946C22.5492 16.7321 22.5982 16.9669 22.6915 17.1853C22.7848 17.4038 22.9206 17.6015 23.0909 17.767C23.4286 18.0949 23.8818 18.2769 24.3525 18.2734C24.8232 18.27 25.2737 18.0815 25.6066 17.7486C25.9394 17.4157 26.1279 16.9653 26.1314 16.4946C26.1348 16.0238 25.9529 15.5707 25.6249 15.233ZM17.2669 6.87499C17.1022 6.70181 16.9044 6.56335 16.6853 6.46775C16.4662 6.37216 16.2302 6.32137 15.9912 6.31838C15.7521 6.31538 15.5149 6.36024 15.2935 6.45032C15.0721 6.54039 14.8709 6.67385 14.7018 6.84285C14.5328 7.01185 14.3992 7.21297 14.3091 7.43436C14.2189 7.65575 14.1739 7.89295 14.1768 8.13198C14.1797 8.37101 14.2304 8.60704 14.3259 8.82619C14.4214 9.04533 14.5598 9.24314 14.7329 9.40799C15.0716 9.73046 15.5229 9.90778 15.9905 9.90211C16.458 9.89643 16.9049 9.70821 17.2356 9.37762C17.5663 9.04703 17.7547 8.60027 17.7606 8.13269C17.7664 7.66511 17.5893 7.21376 17.2669 6.87499ZM8.90895 6.87499C8.74346 6.70459 8.54575 6.56879 8.3273 6.47549C8.10886 6.38219 7.87405 6.33325 7.63652 6.33152C7.399 6.32978 7.1635 6.37529 6.94371 6.46538C6.72393 6.55548 6.52425 6.68837 6.35629 6.85633C6.18833 7.0243 6.05544 7.22397 5.96534 7.44376C5.87524 7.66354 5.82974 7.89904 5.83148 8.13657C5.83321 8.37409 5.88215 8.6089 5.97545 8.82735C6.06875 9.04579 6.20455 9.2435 6.37495 9.40899C6.71263 9.73695 7.1658 9.91886 7.63652 9.91542C8.10724 9.91198 8.55771 9.72346 8.89056 9.39061C9.22342 9.05775 9.41194 8.60729 9.41538 8.13657C9.41882 7.66585 9.23691 7.21268 8.90895 6.87499ZM25.6249 23.59C25.4595 23.4196 25.2617 23.2838 25.0433 23.1905C24.8249 23.0972 24.5901 23.0483 24.3525 23.0465C24.115 23.0448 23.8795 23.0903 23.6597 23.1804C23.4399 23.2705 23.2403 23.4034 23.0723 23.5713C22.9043 23.7393 22.7714 23.939 22.6813 24.1588C22.5912 24.3785 22.5457 24.614 22.5475 24.8516C22.5492 25.0891 22.5982 25.3239 22.6915 25.5423C22.7848 25.7608 22.9206 25.9585 23.0909 26.124C23.4286 26.4519 23.8818 26.6339 24.3525 26.6304C24.8232 26.627 25.2737 26.4385 25.6066 26.1056C25.9394 25.7727 26.1279 25.3223 26.1314 24.8516C26.1348 24.3808 25.9529 23.9277 25.6249 23.59ZM21.4459 11.053C21.2805 10.8826 21.0827 10.7468 20.8643 10.6535C20.6459 10.5602 20.4111 10.5113 20.1735 10.5095C19.936 10.5078 19.7005 10.5533 19.4807 10.6434C19.2609 10.7335 19.0613 10.8664 18.8933 11.0343C18.7253 11.2023 18.5924 11.402 18.5023 11.6218C18.4122 11.8415 18.3667 12.077 18.3685 12.3146C18.3702 12.5521 18.4192 12.7869 18.5125 13.0053C18.6058 13.2238 18.7416 13.4215 18.9119 13.587C19.2496 13.9149 19.7028 14.0969 20.1735 14.0934C20.6442 14.09 21.0947 13.9015 21.4276 13.5686C21.7604 13.2357 21.9489 12.7853 21.9524 12.3146C21.9558 11.8438 21.7739 11.3907 21.4459 11.053ZM17.2659 15.233C17.1016 15.0579 16.9038 14.9177 16.6842 14.8205C16.4646 14.7234 16.2278 14.6714 15.9877 14.6676C15.7476 14.6638 15.5092 14.7083 15.2867 14.7984C15.0641 14.8885 14.862 15.0225 14.6922 15.1922C14.5224 15.362 14.3885 15.5642 14.2984 15.7867C14.2082 16.0093 14.1637 16.2477 14.1676 16.4877C14.1714 16.7278 14.2234 16.9647 14.3205 17.1843C14.4176 17.4038 14.5579 17.6017 14.7329 17.766C15.0706 18.0939 15.5238 18.2759 15.9945 18.2724C16.4652 18.269 16.9157 18.0805 17.2486 17.7476C17.5814 17.4147 17.7699 16.9643 17.7734 16.4936C17.7768 16.0228 17.5949 15.5697 17.2669 15.232L17.2659 15.233ZM13.0879 19.411C12.9225 19.2406 12.7247 19.1048 12.5063 19.0115C12.2879 18.9182 12.0531 18.8693 11.8155 18.8675C11.578 18.8658 11.3425 18.9113 11.1227 19.0014C10.9029 19.0915 10.7033 19.2244 10.5353 19.3923C10.3673 19.5603 10.2344 19.76 10.1443 19.9798C10.0542 20.1995 10.0087 20.435 10.0105 20.6726C10.0122 20.9101 10.0612 21.1449 10.1545 21.3633C10.2478 21.5818 10.3835 21.7795 10.5539 21.945C10.8916 22.2729 11.3448 22.4549 11.8155 22.4514C12.2862 22.448 12.7367 22.2595 13.0696 21.9266C13.4024 21.5937 13.5909 21.1433 13.5944 20.6726C13.5978 20.2018 13.4159 19.7487 13.0879 19.411ZM8.90795 23.591C8.74363 23.4159 8.5458 23.2757 8.32622 23.1785C8.10664 23.0814 7.86977 23.0294 7.6297 23.0256C7.38963 23.0218 7.15124 23.0663 6.92869 23.1564C6.70614 23.2465 6.50397 23.3805 6.33419 23.5502C6.16441 23.72 6.03048 23.9222 5.94036 24.1447C5.85023 24.3673 5.80575 24.6057 5.80955 24.8457C5.81335 25.0858 5.86536 25.3227 5.96249 25.5423C6.05961 25.7618 6.19988 25.9597 6.37495 26.124C6.71263 26.4519 7.1658 26.6339 7.63652 26.6304C8.10724 26.627 8.55771 26.4385 8.89056 26.1056C9.22342 25.7727 9.41194 25.3223 9.41538 24.8516C9.41882 24.3808 9.23691 23.9277 8.90895 23.59L8.90795 23.591Z" fill="#46FF42"/>
</svg>
