<svg xmlns="http://www.w3.org/2000/svg" width="96" height="88" fill="none" viewBox="0 0 96 88"><path fill="#46FF42" d="M24.713 2.678a1.89 1.89 0 0 1-1.901 1.878 1.89 1.89 0 0 1-1.901-1.878A1.89 1.89 0 0 1 22.81.8c1.05 0 1.902.84 1.902 1.878Zm41.822 0a1.89 1.89 0 0 1-1.901 1.878 1.89 1.89 0 0 1-1.901-1.878A1.89 1.89 0 0 1 64.633.8c1.05 0 1.902.84 1.902 1.878Zm25.663 28.174a1.89 1.89 0 0 1-1.901 1.878 1.89 1.89 0 0 1-1.901-1.878 1.89 1.89 0 0 1 1.901-1.878c1.05 0 1.901.84 1.901 1.878ZM66.535 60.904a1.89 1.89 0 0 1-1.901 1.878 1.89 1.89 0 0 1-1.901-1.878 1.89 1.89 0 0 1 1.9-1.878c1.05 0 1.902.84 1.902 1.878Zm-41.822 0a1.89 1.89 0 0 1-1.901 1.878 1.89 1.89 0 0 1-1.901-1.878 1.89 1.89 0 0 1 1.9-1.878c1.05 0 1.902.84 1.902 1.878ZM19.01 2.678a1.89 1.89 0 0 1-1.901 1.878 1.89 1.89 0 0 1-1.901-1.878A1.89 1.89 0 0 1 17.108.8c1.05 0 1.902.84 1.902 1.878Zm41.822 0a1.89 1.89 0 0 1-1.901 1.878 1.89 1.89 0 0 1-1.901-1.878A1.89 1.89 0 0 1 58.93.8c1.05 0 1.902.84 1.902 1.878Zm25.663 28.174a1.89 1.89 0 0 1-1.9 1.878 1.89 1.89 0 0 1-1.902-1.878 1.89 1.89 0 0 1 1.901-1.878c1.05 0 1.901.84 1.901 1.878Zm-3.802-5.635a1.89 1.89 0 0 1-1.9 1.879 1.89 1.89 0 0 1-1.902-1.879 1.89 1.89 0 0 1 1.901-1.878 1.89 1.89 0 0 1 1.901 1.878Zm0-5.635a1.89 1.89 0 0 1-1.9 1.879 1.89 1.89 0 0 1-1.902-1.879 1.89 1.89 0 0 1 1.901-1.878 1.89 1.89 0 0 1 1.901 1.878Zm-6.653-5.634a1.89 1.89 0 0 1-1.901 1.878 1.89 1.89 0 0 1-1.901-1.878 1.89 1.89 0 0 1 1.9-1.879 1.89 1.89 0 0 1 1.902 1.879Zm5.703 0a1.89 1.89 0 0 1-1.901 1.878 1.89 1.89 0 0 1-1.901-1.878 1.89 1.89 0 0 1 1.9-1.879 1.89 1.89 0 0 1 1.902 1.879ZM60.832 60.904a1.89 1.89 0 0 1-1.901 1.878 1.89 1.89 0 0 1-1.901-1.878 1.89 1.89 0 0 1 1.9-1.878c1.05 0 1.902.84 1.902 1.878Zm-41.822 0a1.89 1.89 0 0 1-1.901 1.878 1.89 1.89 0 0 1-1.901-1.878 1.89 1.89 0 0 1 1.9-1.878c1.05 0 1.902.84 1.902 1.878ZM13.307 2.678a1.89 1.89 0 0 1-1.901 1.878 1.89 1.89 0 0 1-1.901-1.878A1.89 1.89 0 0 1 11.405.8c1.05 0 1.902.84 1.902 1.878Zm41.822 0a1.89 1.89 0 0 1-1.901 1.878 1.89 1.89 0 0 1-1.901-1.878A1.89 1.89 0 0 1 53.227.8c1.05 0 1.902.84 1.902 1.878Zm25.663 28.174a1.89 1.89 0 0 1-1.9 1.878 1.89 1.89 0 0 1-1.902-1.878 1.89 1.89 0 0 1 1.901-1.878c1.05 0 1.901.84 1.901 1.878ZM55.129 60.904a1.89 1.89 0 0 1-1.901 1.878 1.89 1.89 0 0 1-1.901-1.878 1.89 1.89 0 0 1 1.9-1.878c1.05 0 1.902.84 1.902 1.878Zm-41.822 0a1.89 1.89 0 0 1-1.901 1.878 1.89 1.89 0 0 1-1.901-1.878 1.89 1.89 0 0 1 1.9-1.878c1.05 0 1.902.84 1.902 1.878ZM7.604 2.678a1.89 1.89 0 0 1-1.901 1.878 1.89 1.89 0 0 1-1.901-1.878A1.89 1.89 0 0 1 5.703.8c1.05 0 1.901.84 1.901 1.878Zm41.822 0a1.89 1.89 0 0 1-1.901 1.878 1.89 1.89 0 0 1-1.901-1.878A1.89 1.89 0 0 1 47.524.8c1.05 0 1.902.84 1.902 1.878ZM75.09 30.852a1.89 1.89 0 0 1-1.902 1.878 1.89 1.89 0 0 1-1.9-1.878 1.89 1.89 0 0 1 1.9-1.878c1.05 0 1.901.84 1.901 1.878ZM49.426 60.904a1.89 1.89 0 0 1-1.901 1.878 1.89 1.89 0 0 1-1.901-1.878 1.89 1.89 0 0 1 1.9-1.878c1.05 0 1.902.84 1.902 1.878Zm-41.822 0a1.89 1.89 0 0 1-1.901 1.878 1.89 1.89 0 0 1-1.901-1.878 1.89 1.89 0 0 1 1.901-1.878c1.05 0 1.901.84 1.901 1.878ZM28.515 6.435a1.89 1.89 0 0 1-1.901 1.878 1.89 1.89 0 0 1-1.901-1.878 1.89 1.89 0 0 1 1.9-1.879 1.89 1.89 0 0 1 1.902 1.879Zm41.822 0a1.89 1.89 0 0 1-1.901 1.878 1.89 1.89 0 0 1-1.901-1.878 1.89 1.89 0 0 1 1.9-1.879 1.89 1.89 0 0 1 1.902 1.879ZM96 34.609a1.89 1.89 0 0 1-1.901 1.878 1.89 1.89 0 0 1-1.901-1.879 1.89 1.89 0 0 1 1.901-1.878A1.89 1.89 0 0 1 96 34.61ZM70.337 64.66a1.89 1.89 0 0 1-1.901 1.879 1.89 1.89 0 0 1-1.901-1.878 1.89 1.89 0 0 1 1.9-1.879 1.89 1.89 0 0 1 1.902 1.879Zm-41.822 0a1.89 1.89 0 0 1-1.901 1.879 1.89 1.89 0 0 1-1.901-1.878 1.89 1.89 0 0 1 1.9-1.879 1.89 1.89 0 0 1 1.902 1.879Zm0-52.59a1.89 1.89 0 0 1-1.901 1.878 1.89 1.89 0 0 1-1.901-1.879 1.89 1.89 0 0 1 1.9-1.878c1.05 0 1.902.841 1.902 1.878Zm41.822 0a1.89 1.89 0 0 1-1.901 1.878 1.89 1.89 0 0 1-1.901-1.879 1.89 1.89 0 0 1 1.9-1.878c1.05 0 1.902.841 1.902 1.878ZM96 40.243a1.89 1.89 0 0 1-1.901 1.878 1.89 1.89 0 0 1-1.901-1.878 1.89 1.89 0 0 1 1.901-1.878c1.05 0 1.901.84 1.901 1.878ZM70.337 70.296a1.89 1.89 0 0 1-1.901 1.878 1.89 1.89 0 0 1-1.901-1.879 1.89 1.89 0 0 1 1.9-1.878 1.89 1.89 0 0 1 1.902 1.879Zm5.703 2.817a1.89 1.89 0 0 1-1.901 1.878 1.89 1.89 0 0 1-1.901-1.878 1.89 1.89 0 0 1 1.9-1.878c1.05 0 1.902.84 1.902 1.878Zm5.703 0a1.89 1.89 0 0 1-1.901 1.878 1.89 1.89 0 0 1-1.901-1.878 1.89 1.89 0 0 1 1.9-1.878c1.05 0 1.902.84 1.902 1.878Zm.95-5.635a1.89 1.89 0 0 1-1.9 1.878 1.89 1.89 0 0 1-1.902-1.878 1.89 1.89 0 0 1 1.901-1.878c1.05 0 1.901.84 1.901 1.878Zm0-5.635a1.89 1.89 0 0 1-1.9 1.878 1.89 1.89 0 0 1-1.902-1.878 1.89 1.89 0 0 1 1.901-1.878c1.05 0 1.901.84 1.901 1.878Zm-54.178 8.453a1.89 1.89 0 0 1-1.901 1.878 1.89 1.89 0 0 1-1.901-1.879 1.89 1.89 0 0 1 1.9-1.878 1.89 1.89 0 0 1 1.902 1.879Zm5.703 2.817a1.89 1.89 0 0 1-1.901 1.878 1.89 1.89 0 0 1-1.901-1.878 1.89 1.89 0 0 1 1.9-1.878c1.05 0 1.902.84 1.902 1.878Zm5.702 0a1.89 1.89 0 0 1-1.9 1.878 1.89 1.89 0 0 1-1.901-1.878 1.89 1.89 0 0 1 1.9-1.878c1.05 0 1.902.84 1.902 1.878Zm-5.702-59.165a1.89 1.89 0 0 1-1.901 1.878 1.89 1.89 0 0 1-1.901-1.878 1.89 1.89 0 0 1 1.9-1.879 1.89 1.89 0 0 1 1.902 1.879Zm5.702 0a1.89 1.89 0 0 1-1.9 1.878 1.89 1.89 0 0 1-1.901-1.878 1.89 1.89 0 0 1 1.9-1.879 1.89 1.89 0 0 1 1.902 1.879Zm-11.405 3.756a1.89 1.89 0 0 1-1.901 1.878 1.89 1.89 0 0 1-1.901-1.878 1.89 1.89 0 0 1 1.9-1.878c1.05 0 1.902.84 1.902 1.878Zm41.822 0a1.89 1.89 0 0 1-1.901 1.878c-1.05 0-1.901-.84-1.901-1.878a1.89 1.89 0 0 1 1.9-1.878c1.05 0 1.902.84 1.902 1.878ZM96 45.878a1.89 1.89 0 0 1-1.901 1.878 1.89 1.89 0 0 1-1.901-1.878A1.89 1.89 0 0 1 94.099 44c1.05 0 1.901.84 1.901 1.878ZM70.337 75.93a1.89 1.89 0 0 1-1.901 1.878c-1.05 0-1.901-.84-1.901-1.878a1.89 1.89 0 0 1 1.9-1.878c1.05 0 1.902.84 1.902 1.878Zm-41.822 0a1.89 1.89 0 0 1-1.901 1.878 1.89 1.89 0 0 1-1.901-1.878 1.89 1.89 0 0 1 1.9-1.878c1.05 0 1.902.84 1.902 1.878Zm0-52.591a1.89 1.89 0 0 1-1.901 1.878 1.89 1.89 0 0 1-1.901-1.878 1.89 1.89 0 0 1 1.9-1.878c1.05 0 1.902.84 1.902 1.878Zm41.822 0a1.89 1.89 0 0 1-1.901 1.878c-1.05 0-1.901-.84-1.901-1.878a1.89 1.89 0 0 1 1.9-1.878c1.05 0 1.902.84 1.902 1.878ZM96 51.513a1.89 1.89 0 0 1-1.901 1.878 1.89 1.89 0 0 1-1.901-1.878 1.89 1.89 0 0 1 1.901-1.878c1.05 0 1.901.84 1.901 1.878ZM70.337 81.565a1.89 1.89 0 0 1-1.901 1.878c-1.05 0-1.901-.84-1.901-1.878a1.89 1.89 0 0 1 1.9-1.878c1.05 0 1.902.84 1.902 1.878Zm-41.822 0a1.89 1.89 0 0 1-1.901 1.878 1.89 1.89 0 0 1-1.901-1.878 1.89 1.89 0 0 1 1.9-1.878c1.05 0 1.902.84 1.902 1.878Zm-3.802-54.469a1.89 1.89 0 0 1-1.901 1.878 1.89 1.89 0 0 1-1.901-1.878 1.89 1.89 0 0 1 1.9-1.879 1.89 1.89 0 0 1 1.902 1.879Zm41.822 0a1.89 1.89 0 0 1-1.901 1.878 1.89 1.89 0 0 1-1.901-1.878 1.89 1.89 0 0 1 1.9-1.879 1.89 1.89 0 0 1 1.902 1.879ZM92.198 55.27a1.89 1.89 0 0 1-1.901 1.878 1.89 1.89 0 0 1-1.901-1.879 1.89 1.89 0 0 1 1.901-1.878 1.89 1.89 0 0 1 1.901 1.878ZM66.535 85.322a1.89 1.89 0 0 1-1.901 1.878 1.89 1.89 0 0 1-1.901-1.879 1.89 1.89 0 0 1 1.9-1.878 1.89 1.89 0 0 1 1.902 1.879Zm-41.822 0a1.89 1.89 0 0 1-1.901 1.878 1.89 1.89 0 0 1-1.901-1.879 1.89 1.89 0 0 1 1.9-1.878 1.89 1.89 0 0 1 1.902 1.879ZM19.01 27.096a1.89 1.89 0 0 1-1.901 1.878 1.89 1.89 0 0 1-1.901-1.878 1.89 1.89 0 0 1 1.9-1.879 1.89 1.89 0 0 1 1.902 1.879Zm41.822 0a1.89 1.89 0 0 1-1.901 1.878 1.89 1.89 0 0 1-1.901-1.878 1.89 1.89 0 0 1 1.9-1.879 1.89 1.89 0 0 1 1.902 1.879ZM86.495 55.27a1.89 1.89 0 0 1-1.9 1.878 1.89 1.89 0 0 1-1.902-1.879 1.89 1.89 0 0 1 1.901-1.878 1.89 1.89 0 0 1 1.901 1.878ZM60.832 85.322A1.89 1.89 0 0 1 58.93 87.2a1.89 1.89 0 0 1-1.901-1.879 1.89 1.89 0 0 1 1.9-1.878 1.89 1.89 0 0 1 1.902 1.879Zm-41.822 0a1.89 1.89 0 0 1-1.901 1.878 1.89 1.89 0 0 1-1.901-1.879 1.89 1.89 0 0 1 1.9-1.878 1.89 1.89 0 0 1 1.902 1.879Zm-5.703-58.226a1.89 1.89 0 0 1-1.901 1.878 1.89 1.89 0 0 1-1.901-1.878 1.89 1.89 0 0 1 1.9-1.879 1.89 1.89 0 0 1 1.902 1.879Zm41.822 0a1.89 1.89 0 0 1-1.901 1.878 1.89 1.89 0 0 1-1.901-1.878 1.89 1.89 0 0 1 1.9-1.879 1.89 1.89 0 0 1 1.902 1.879ZM80.792 55.27a1.89 1.89 0 0 1-1.9 1.878 1.89 1.89 0 0 1-1.902-1.879 1.89 1.89 0 0 1 1.901-1.878 1.89 1.89 0 0 1 1.901 1.878ZM55.129 85.322a1.89 1.89 0 0 1-1.901 1.878 1.89 1.89 0 0 1-1.901-1.879 1.89 1.89 0 0 1 1.9-1.878 1.89 1.89 0 0 1 1.902 1.879Zm-41.822 0a1.89 1.89 0 0 1-1.901 1.878 1.89 1.89 0 0 1-1.901-1.879 1.89 1.89 0 0 1 1.9-1.878 1.89 1.89 0 0 1 1.902 1.879ZM7.604 27.096a1.89 1.89 0 0 1-1.901 1.878 1.89 1.89 0 0 1-1.901-1.878 1.89 1.89 0 0 1 1.901-1.879 1.89 1.89 0 0 1 1.901 1.879Zm41.822 0a1.89 1.89 0 0 1-1.901 1.878 1.89 1.89 0 0 1-1.901-1.878 1.89 1.89 0 0 1 1.9-1.879 1.89 1.89 0 0 1 1.902 1.879ZM75.09 55.27a1.89 1.89 0 0 1-1.902 1.878 1.89 1.89 0 0 1-1.9-1.879 1.89 1.89 0 0 1 1.9-1.878 1.89 1.89 0 0 1 1.901 1.878ZM49.426 85.322a1.89 1.89 0 0 1-1.901 1.878 1.89 1.89 0 0 1-1.901-1.879 1.89 1.89 0 0 1 1.9-1.878 1.89 1.89 0 0 1 1.902 1.879Zm-41.822 0A1.89 1.89 0 0 1 5.703 87.2a1.89 1.89 0 0 1-1.901-1.879 1.89 1.89 0 0 1 1.901-1.878 1.89 1.89 0 0 1 1.901 1.879ZM3.802 23.339a1.89 1.89 0 0 1-1.901 1.878A1.89 1.89 0 0 1 0 23.34a1.89 1.89 0 0 1 1.901-1.878c1.05 0 1.901.84 1.901 1.878Zm41.822 0a1.89 1.89 0 0 1-1.901 1.878 1.89 1.89 0 0 1-1.901-1.878 1.89 1.89 0 0 1 1.9-1.878c1.05 0 1.902.84 1.902 1.878Zm25.663 28.174a1.89 1.89 0 0 1-1.9 1.878 1.89 1.89 0 0 1-1.902-1.878 1.89 1.89 0 0 1 1.901-1.878c1.05 0 1.901.84 1.901 1.878ZM45.624 81.565a1.89 1.89 0 0 1-1.901 1.878 1.89 1.89 0 0 1-1.901-1.878 1.89 1.89 0 0 1 1.9-1.878c1.05 0 1.902.84 1.902 1.878Zm-41.822 0a1.89 1.89 0 0 1-1.901 1.878A1.89 1.89 0 0 1 0 81.565a1.89 1.89 0 0 1 1.901-1.878c1.05 0 1.901.84 1.901 1.878Zm0-63.861a1.89 1.89 0 0 1-1.901 1.878A1.89 1.89 0 0 1 0 17.704a1.89 1.89 0 0 1 1.901-1.878c1.05 0 1.901.84 1.901 1.878Zm41.822 0a1.89 1.89 0 0 1-1.901 1.878 1.89 1.89 0 0 1-1.901-1.878 1.89 1.89 0 0 1 1.9-1.878c1.05 0 1.902.84 1.902 1.878Zm25.663 28.174a1.89 1.89 0 0 1-1.9 1.878 1.89 1.89 0 0 1-1.902-1.878A1.89 1.89 0 0 1 69.386 44c1.05 0 1.901.84 1.901 1.878ZM45.624 75.93a1.89 1.89 0 0 1-1.901 1.878 1.89 1.89 0 0 1-1.901-1.878 1.89 1.89 0 0 1 1.9-1.878c1.05 0 1.902.84 1.902 1.878Zm-41.822 0a1.89 1.89 0 0 1-1.901 1.878A1.89 1.89 0 0 1 0 75.93a1.89 1.89 0 0 1 1.901-1.878c1.05 0 1.901.84 1.901 1.878Zm0-63.86a1.89 1.89 0 0 1-1.901 1.878A1.89 1.89 0 0 1 0 12.069a1.89 1.89 0 0 1 1.901-1.878 1.89 1.89 0 0 1 1.901 1.878Zm41.822 0a1.89 1.89 0 0 1-1.901 1.878 1.89 1.89 0 0 1-1.901-1.879 1.89 1.89 0 0 1 1.9-1.878c1.05 0 1.902.841 1.902 1.878Zm25.663 28.173a1.89 1.89 0 0 1-1.9 1.878 1.89 1.89 0 0 1-1.902-1.878 1.89 1.89 0 0 1 1.901-1.878c1.05 0 1.901.84 1.901 1.878ZM45.624 70.296a1.89 1.89 0 0 1-1.901 1.878 1.89 1.89 0 0 1-1.901-1.879 1.89 1.89 0 0 1 1.9-1.878 1.89 1.89 0 0 1 1.902 1.879Zm-41.822 0a1.89 1.89 0 0 1-1.901 1.878A1.89 1.89 0 0 1 0 70.295a1.89 1.89 0 0 1 1.901-1.878 1.89 1.89 0 0 1 1.901 1.879Zm0-63.861a1.89 1.89 0 0 1-1.901 1.878A1.89 1.89 0 0 1 0 6.435a1.89 1.89 0 0 1 1.901-1.879 1.89 1.89 0 0 1 1.901 1.879Zm41.822 0a1.89 1.89 0 0 1-1.901 1.878 1.89 1.89 0 0 1-1.901-1.878 1.89 1.89 0 0 1 1.9-1.879 1.89 1.89 0 0 1 1.902 1.879Zm25.663 28.174a1.89 1.89 0 0 1-1.9 1.878 1.89 1.89 0 0 1-1.902-1.879 1.89 1.89 0 0 1 1.901-1.878 1.89 1.89 0 0 1 1.901 1.879ZM45.624 64.66a1.89 1.89 0 0 1-1.901 1.879 1.89 1.89 0 0 1-1.901-1.878 1.89 1.89 0 0 1 1.9-1.879 1.89 1.89 0 0 1 1.902 1.879Zm-41.822 0a1.89 1.89 0 0 1-1.901 1.879A1.89 1.89 0 0 1 0 64.66a1.89 1.89 0 0 1 1.901-1.879 1.89 1.89 0 0 1 1.901 1.879Z"/></svg>