<svg xmlns="http://www.w3.org/2000/svg" width="86" height="90" fill="none" viewBox="0 0 86 90"><path fill="#46FF42" d="M45.105 2.108c0 .943-.763 1.708-1.704 1.708a1.706 1.706 0 0 1-1.704-1.708C41.697 1.165 42.46.4 43.4.4c.94 0 1.704.765 1.704 1.708ZM39.993 4.67c0 .943-.763 1.707-1.704 1.707a1.706 1.706 0 0 1-1.704-1.707c0-.944.763-1.708 1.704-1.708.94 0 1.704.764 1.704 1.708ZM34.88 7.231c0 .943-.762 1.708-1.703 1.708a1.706 1.706 0 0 1-1.704-1.708c0-.943.763-1.708 1.704-1.708.94 0 1.704.765 1.704 1.708Zm-5.111 3.416c0 .943-.763 1.707-1.704 1.707a1.706 1.706 0 0 1-1.704-1.707c0-.944.763-1.708 1.704-1.708.94 0 1.704.764 1.704 1.707Zm0 34.153c0 .944-.763 1.708-1.704 1.708A1.706 1.706 0 0 1 26.36 44.8c0-.943.763-1.707 1.704-1.707.94 0 1.704.764 1.704 1.707Zm-5.112-30.738c0 .943-.763 1.708-1.704 1.708a1.706 1.706 0 0 1-1.704-1.708c0-.943.763-1.708 1.704-1.708.94 0 1.704.765 1.704 1.708Zm-5.112 3.415c0 .943-.763 1.708-1.704 1.708a1.706 1.706 0 0 1-1.704-1.708c0-.943.763-1.707 1.704-1.707.94 0 1.704.764 1.704 1.707Zm0 20.493c0 .943-.763 1.707-1.704 1.707a1.706 1.706 0 0 1-1.704-1.707c0-.944.763-1.708 1.704-1.708.94 0 1.704.764 1.704 1.708Zm-5.112-17.077c0 .943-.763 1.707-1.704 1.707a1.706 1.706 0 0 1-1.704-1.707c0-.943.763-1.708 1.704-1.708.94 0 1.704.765 1.704 1.708Zm0 20.492c0 .943-.763 1.708-1.704 1.708a1.706 1.706 0 0 1-1.704-1.708c0-.943.763-1.708 1.704-1.708.94 0 1.704.765 1.704 1.708ZM9.32 24.308c0 .943-.762 1.708-1.703 1.708a1.706 1.706 0 0 1-1.704-1.708c0-.943.763-1.708 1.704-1.708.94 0 1.704.765 1.704 1.708Zm0 20.492c0 .944-.762 1.708-1.703 1.708A1.706 1.706 0 0 1 5.913 44.8c0-.943.763-1.707 1.704-1.707.94 0 1.704.764 1.704 1.707Zm0 13.662c0 .943-.762 1.708-1.703 1.708a1.706 1.706 0 0 1-1.704-1.708c0-.943.763-1.708 1.704-1.708.94 0 1.704.765 1.704 1.708ZM4.209 27.724c0 .943-.763 1.707-1.704 1.707A1.706 1.706 0 0 1 .8 27.724c0-.944.763-1.708 1.704-1.708.94 0 1.704.764 1.704 1.708Zm.851 20.492c0 .943-.762 1.707-1.703 1.707a1.706 1.706 0 0 1-1.704-1.707c0-.943.763-1.708 1.704-1.708.94 0 1.704.765 1.704 1.708Zm0 14.515c0 .943-.762 1.708-1.703 1.708a1.706 1.706 0 0 1-1.704-1.708c0-.943.763-1.708 1.704-1.708.94 0 1.704.765 1.704 1.708Zm4.26-30.738c0 .943-.762 1.707-1.703 1.707a1.706 1.706 0 0 1-1.704-1.707c0-.943.763-1.708 1.704-1.708.94 0 1.704.765 1.704 1.708Zm0 20.492c0 .943-.762 1.708-1.703 1.708a1.706 1.706 0 0 1-1.704-1.708c0-.943.763-1.708 1.704-1.708.94 0 1.704.765 1.704 1.708Zm0 13.662c0 .943-.762 1.707-1.703 1.707a1.706 1.706 0 0 1-1.704-1.707c0-.944.763-1.708 1.704-1.708.94 0 1.704.764 1.704 1.708Zm5.113-30.739c0 .943-.763 1.708-1.704 1.708a1.706 1.706 0 0 1-1.704-1.708c0-.943.763-1.708 1.704-1.708.94 0 1.704.765 1.704 1.708Zm0 20.492c0 .944-.763 1.708-1.704 1.708a1.706 1.706 0 0 1-1.704-1.708c0-.943.763-1.707 1.704-1.707.94 0 1.704.764 1.704 1.707Zm0 13.662c0 .943-.763 1.708-1.704 1.708a1.706 1.706 0 0 1-1.704-1.708c0-.943.763-1.708 1.704-1.708.94 0 1.704.765 1.704 1.708Z"/><path fill="#46FF42" d="M19.545 37.97c0 .943-.763 1.707-1.704 1.707a1.706 1.706 0 0 1-1.704-1.707c0-.944.763-1.708 1.704-1.708.94 0 1.704.764 1.704 1.708Zm0 20.492c0 .943-.763 1.708-1.704 1.708a1.706 1.706 0 0 1-1.704-1.708c0-.943.763-1.708 1.704-1.708.94 0 1.704.765 1.704 1.708Zm0 13.662c0 .943-.763 1.707-1.704 1.707a1.706 1.706 0 0 1-1.704-1.707c0-.944.763-1.708 1.704-1.708.94 0 1.704.764 1.704 1.708Zm5.112-30.739c0 .943-.763 1.708-1.704 1.708a1.706 1.706 0 0 1-1.704-1.708c0-.943.763-1.708 1.704-1.708.94 0 1.704.765 1.704 1.708Zm0 20.492c0 .943-.763 1.708-1.704 1.708a1.706 1.706 0 0 1-1.704-1.708c0-.943.763-1.707 1.704-1.707.94 0 1.704.764 1.704 1.707Zm0 13.662c0 .943-.763 1.707-1.704 1.707a1.706 1.706 0 0 1-1.704-1.707c0-.943.763-1.708 1.704-1.708.94 0 1.704.765 1.704 1.708ZM29.769 44.8c0 .944-.763 1.708-1.704 1.708A1.706 1.706 0 0 1 26.36 44.8c0-.943.763-1.707 1.704-1.707.94 0 1.704.764 1.704 1.707Zm0 20.493c0 .943-.763 1.707-1.704 1.707a1.706 1.706 0 0 1-1.704-1.707c0-.943.763-1.708 1.704-1.708.94 0 1.704.765 1.704 1.708Zm0 13.661c0 .943-.763 1.708-1.704 1.708a1.706 1.706 0 0 1-1.704-1.708c0-.943.763-1.707 1.704-1.707.94 0 1.704.764 1.704 1.707Zm5.111-30.738c0 .943-.762 1.707-1.703 1.707a1.706 1.706 0 0 1-1.704-1.707c0-.943.763-1.708 1.704-1.708.94 0 1.704.765 1.704 1.708Zm0 20.492c0 .943-.762 1.708-1.703 1.708a1.706 1.706 0 0 1-1.704-1.708c0-.943.763-1.708 1.704-1.708.94 0 1.704.765 1.704 1.708Zm0 13.662c0 .943-.762 1.707-1.703 1.707a1.706 1.706 0 0 1-1.704-1.707c0-.944.763-1.708 1.704-1.708.94 0 1.704.764 1.704 1.708Zm5.113-31.593c0 .943-.763 1.708-1.704 1.708a1.706 1.706 0 0 1-1.704-1.708c0-.943.763-1.707 1.704-1.707.94 0 1.704.764 1.704 1.707Zm0 20.493c0 .943-.763 1.707-1.704 1.707a1.706 1.706 0 0 1-1.704-1.707c0-.944.763-1.708 1.704-1.708.94 0 1.704.764 1.704 1.708Zm0 13.661c0 .943-.763 1.708-1.704 1.708a1.706 1.706 0 0 1-1.704-1.708c0-.943.763-1.707 1.704-1.707.94 0 1.704.764 1.704 1.707Zm5.112-31.592c0 .943-.763 1.708-1.704 1.708a1.706 1.706 0 0 1-1.704-1.708c0-.943.763-1.708 1.704-1.708.94 0 1.704.765 1.704 1.708Zm0 20.492c0 .943-.763 1.708-1.704 1.708a1.706 1.706 0 0 1-1.704-1.708c0-.943.763-1.707 1.704-1.707.94 0 1.704.764 1.704 1.707Zm0 13.662c0 .943-.763 1.707-1.704 1.707a1.706 1.706 0 0 1-1.704-1.707c0-.943.763-1.708 1.704-1.708.94 0 1.704.765 1.704 1.708Zm5.112-36.716c0 .943-.763 1.708-1.704 1.708a1.706 1.706 0 0 1-1.704-1.708c0-.943.763-1.707 1.704-1.707.94 0 1.704.764 1.704 1.707Zm0 20.493c0 .943-.763 1.707-1.704 1.707a1.706 1.706 0 0 1-1.704-1.707c0-.944.763-1.708 1.704-1.708.94 0 1.704.764 1.704 1.708Zm0 13.661c0 .943-.763 1.708-1.704 1.708a1.706 1.706 0 0 1-1.704-1.708c0-.943.763-1.707 1.704-1.707.94 0 1.704.764 1.704 1.707Zm5.112-37.569c0 .943-.763 1.708-1.704 1.708a1.706 1.706 0 0 1-1.704-1.708c0-.943.763-1.708 1.704-1.708.94 0 1.704.765 1.704 1.708Zm0 20.492c0 .943-.763 1.708-1.704 1.708a1.706 1.706 0 0 1-1.704-1.708c0-.943.763-1.707 1.704-1.707.94 0 1.704.764 1.704 1.707Zm0 13.662c0 .943-.763 1.707-1.704 1.707a1.706 1.706 0 0 1-1.704-1.707c0-.943.763-1.708 1.704-1.708.94 0 1.704.765 1.704 1.708Zm5.111-37.569c0 .943-.762 1.707-1.703 1.707a1.706 1.706 0 0 1-1.704-1.708c0-.943.763-1.707 1.704-1.707.94 0 1.704.764 1.704 1.708Zm0 20.492c0 .943-.762 1.708-1.703 1.708a1.706 1.706 0 0 1-1.704-1.708c0-.943.763-1.708 1.704-1.708.94 0 1.704.765 1.704 1.708Zm0 13.661c0 .944-.762 1.708-1.703 1.708a1.706 1.706 0 0 1-1.704-1.708c0-.943.763-1.707 1.704-1.707.94 0 1.704.764 1.704 1.707Zm5.113-37.569c0 .943-.763 1.708-1.704 1.708a1.706 1.706 0 0 1-1.704-1.708c0-.943.763-1.707 1.704-1.707.94 0 1.704.764 1.704 1.707Zm0 20.493c0 .943-.763 1.707-1.704 1.707a1.706 1.706 0 0 1-1.704-1.708c0-.943.763-1.707 1.704-1.707.94 0 1.704.764 1.704 1.707Zm0 13.661c0 .943-.763 1.708-1.704 1.708a1.706 1.706 0 0 1-1.704-1.708c0-.943.763-1.708 1.704-1.708.94 0 1.704.765 1.704 1.708Zm5.112-37.569c0 .943-.763 1.708-1.704 1.708a1.706 1.706 0 0 1-1.704-1.708c0-.943.763-1.708 1.704-1.708.94 0 1.704.765 1.704 1.708Zm0 20.492c0 .943-.763 1.708-1.704 1.708a1.706 1.706 0 0 1-1.704-1.708c0-.943.763-1.708 1.704-1.708.94 0 1.704.765 1.704 1.708Zm0 13.662c0 .943-.763 1.707-1.704 1.707a1.706 1.706 0 0 1-1.704-1.707c0-.944.763-1.708 1.704-1.708.94 0 1.704.764 1.704 1.708Zm5.112-36.716c0 .943-.763 1.708-1.704 1.708a1.706 1.706 0 0 1-1.704-1.708c0-.943.763-1.708 1.704-1.708.94 0 1.704.765 1.704 1.708Zm0 20.493c0 .943-.763 1.707-1.704 1.707a1.706 1.706 0 0 1-1.704-1.707c0-.944.763-1.708 1.704-1.708.94 0 1.704.764 1.704 1.708Zm0 13.661c0 .943-.763 1.708-1.704 1.708a1.706 1.706 0 0 1-1.704-1.708c0-.943.763-1.708 1.704-1.708.94 0 1.704.765 1.704 1.708Zm5.112-37.569c0 .943-.763 1.707-1.704 1.707a1.706 1.706 0 0 1-1.704-1.707c0-.943.763-1.708 1.704-1.708.94 0 1.704.765 1.704 1.708Zm0 20.492c0 .943-.763 1.708-1.704 1.708a1.706 1.706 0 0 1-1.704-1.708c0-.943.763-1.708 1.704-1.708.94 0 1.704.765 1.704 1.708Zm0 13.662c0 .943-.763 1.707-1.704 1.707a1.706 1.706 0 0 1-1.704-1.707c0-.943.763-1.708 1.704-1.708.94 0 1.704.765 1.704 1.708ZM86 27.724c0 .943-.762 1.707-1.703 1.707a1.706 1.706 0 0 1-1.704-1.707c0-.944.763-1.708 1.704-1.708.94 0 1.704.764 1.704 1.708Zm-.851 19.638c0 .943-.763 1.708-1.704 1.708a1.706 1.706 0 0 1-1.704-1.708c0-.943.763-1.708 1.704-1.708.94 0 1.704.765 1.704 1.708Zm-.852 14.515c0 .943-.763 1.708-1.704 1.708a1.706 1.706 0 0 1-1.704-1.708c0-.943.763-1.707 1.704-1.707.94 0 1.704.764 1.704 1.707Zm-3.408-38.423c0 .943-.763 1.708-1.704 1.708a1.706 1.706 0 0 1-1.704-1.708c0-.943.763-1.707 1.704-1.707.94 0 1.704.764 1.704 1.707Zm0 20.493c0 .943-.763 1.707-1.704 1.707a1.706 1.706 0 0 1-1.704-1.708c0-.943.763-1.707 1.704-1.707.94 0 1.704.764 1.704 1.708Zm-.852 14.515c0 .943-.763 1.708-1.704 1.708a1.706 1.706 0 0 1-1.704-1.708c0-.943.763-1.708 1.704-1.708.94 0 1.704.765 1.704 1.708Zm-4.26-38.423c0 .943-.763 1.707-1.704 1.707a1.706 1.706 0 0 1-1.704-1.707c0-.943.763-1.708 1.704-1.708.94 0 1.704.765 1.704 1.708Zm0 20.492c0 .943-.763 1.708-1.704 1.708a1.706 1.706 0 0 1-1.704-1.708c0-.943.763-1.707 1.704-1.707.94 0 1.704.764 1.704 1.707Zm-5.112-23.907c0 .943-.763 1.707-1.704 1.707a1.706 1.706 0 0 1-1.704-1.707c0-.944.763-1.708 1.704-1.708.94 0 1.704.764 1.704 1.707Z"/><path fill="#46FF42" d="M70.665 37.116c0 .943-.763 1.708-1.704 1.708a1.706 1.706 0 0 1-1.704-1.708c0-.943.763-1.708 1.704-1.708.94 0 1.704.765 1.704 1.708Zm-5.112-23.908c0 .943-.763 1.708-1.704 1.708a1.706 1.706 0 0 1-1.704-1.708c0-.943.763-1.708 1.704-1.708.94 0 1.704.765 1.704 1.708ZM60.44 9.793c0 .943-.762 1.707-1.703 1.707a1.706 1.706 0 0 1-1.704-1.707c0-.943.763-1.708 1.704-1.708.94 0 1.704.765 1.704 1.708Zm0 34.154c0 .943-.762 1.707-1.703 1.707a1.706 1.706 0 0 1-1.704-1.708c0-.943.763-1.707 1.704-1.707.94 0 1.704.764 1.704 1.708Zm-5.111-37.57c0 .943-.763 1.708-1.704 1.708a1.706 1.706 0 0 1-1.704-1.708c0-.943.763-1.707 1.704-1.707.94 0 1.704.764 1.704 1.707Zm-5.112-2.561c0 .943-.763 1.707-1.704 1.707a1.706 1.706 0 0 1-1.704-1.707c0-.943.763-1.708 1.704-1.708.94 0 1.704.765 1.704 1.708Z"/></svg>