<svg width="96" height="78" viewBox="0 0 96 78" fill="none" xmlns="http://www.w3.org/2000/svg">
<g clip-path="url(#clip0_17_23861)">
<path d="M35.556 45.771C35.556 46.2427 35.3686 46.6951 35.0351 47.0286C34.7016 47.3621 34.2492 47.5495 33.7775 47.5495C33.3058 47.5495 32.8535 47.3621 32.5199 47.0286C32.1864 46.6951 31.999 46.2427 31.999 45.771C31.999 45.2993 32.1864 44.847 32.5199 44.5134C32.8535 44.1799 33.3058 43.9925 33.7775 43.9925C34.2492 43.9925 34.7016 44.1799 35.0351 44.5134C35.3686 44.847 35.556 45.2993 35.556 45.771ZM39.111 49.329C39.111 49.8006 38.9237 50.2528 38.5903 50.5862C38.2568 50.9197 37.8046 51.107 37.333 51.107C36.8615 51.107 36.4092 50.9197 36.0758 50.5862C35.7423 50.2528 35.555 49.8006 35.555 49.329C35.555 48.8575 35.7423 48.4052 36.0758 48.0718C36.4092 47.7383 36.8615 47.551 37.333 47.551C37.8046 47.551 38.2568 47.7383 38.5903 48.0718C38.9237 48.4052 39.111 48.8575 39.111 49.329ZM42.667 52.886C42.6671 53.1196 42.6212 53.3508 42.5318 53.5666C42.4425 53.7824 42.3116 53.9785 42.1465 54.1437C41.9814 54.3089 41.7853 54.44 41.5696 54.5294C41.3538 54.6189 41.1226 54.6649 40.889 54.665C40.6555 54.6651 40.4242 54.6191 40.2084 54.5298C39.9926 54.4405 39.7965 54.3096 39.6313 54.1445C39.4661 53.9793 39.335 53.7833 39.2456 53.5676C39.1562 53.3518 39.1101 53.1206 39.11 52.887C39.11 52.4153 39.2974 51.963 39.6309 51.6294C39.9645 51.2959 40.4168 51.1085 40.8885 51.1085C41.3602 51.1085 41.8126 51.2959 42.1461 51.6294C42.4796 51.963 42.667 52.4143 42.667 52.886ZM46.222 56.444C46.2221 56.6775 46.1762 56.9087 46.0869 57.1245C45.9976 57.3402 45.8667 57.5362 45.7016 57.7014C45.5366 57.8665 45.3406 57.9976 45.1249 58.087C44.9092 58.1764 44.678 58.2224 44.4445 58.2225C44.211 58.2226 43.9798 58.1766 43.7641 58.0874C43.5483 57.9981 43.3523 57.8672 43.1871 57.7021C43.022 57.537 42.891 57.3411 42.8016 57.1254C42.7121 56.9097 42.6661 56.6785 42.666 56.445C42.6659 55.9735 42.8531 55.5212 43.1864 55.1876C43.5198 54.8541 43.972 54.6666 44.4435 54.6665C44.9151 54.6664 45.3674 54.8536 45.7009 55.1869C46.0344 55.5203 46.2219 55.9725 46.222 56.444ZM49.778 52.886C49.7781 53.1196 49.7322 53.3508 49.6428 53.5666C49.5535 53.7824 49.4226 53.9785 49.2575 54.1437C49.0924 54.3089 48.8963 54.44 48.6806 54.5294C48.4648 54.6189 48.2336 54.6649 48 54.665C47.7665 54.6651 47.5352 54.6191 47.3194 54.5298C47.1036 54.4405 46.9075 54.3096 46.7423 54.1445C46.5771 53.9793 46.446 53.7833 46.3566 53.5676C46.2672 53.3518 46.2211 53.1206 46.221 52.887C46.221 52.4153 46.4084 51.963 46.7419 51.6294C47.0755 51.2959 47.5278 51.1085 47.9995 51.1085C48.4712 51.1085 48.9236 51.2959 49.2571 51.6294C49.5906 51.963 49.778 52.4143 49.778 52.886ZM53.333 49.329C53.333 49.8006 53.1457 50.2528 52.8123 50.5862C52.4788 50.9197 52.0266 51.107 51.555 51.107C51.0835 51.107 50.6312 50.9197 50.2978 50.5862C49.9643 50.2528 49.777 49.8006 49.777 49.329C49.777 48.8575 49.9643 48.4052 50.2978 48.0718C50.6312 47.7383 51.0835 47.551 51.555 47.551C52.0266 47.551 52.4788 47.7383 52.8123 48.0718C53.1457 48.4052 53.333 48.8575 53.333 49.329ZM56.889 45.771C56.8892 46.2427 56.7019 46.6951 56.3685 47.0287C56.035 47.3624 55.5827 47.5499 55.111 47.55C54.6393 47.5501 54.1869 47.3629 53.8533 47.0294C53.5197 46.696 53.3322 46.2437 53.332 45.772C53.332 45.5385 53.3779 45.3072 53.4672 45.0914C53.5565 44.8756 53.6875 44.6795 53.8526 44.5143C54.0177 44.3491 54.2137 44.218 54.4295 44.1286C54.6452 44.0391 54.8765 43.9931 55.11 43.993C55.3436 43.9929 55.5749 44.0389 55.7907 44.1282C56.0065 44.2175 56.2026 44.3485 56.3678 44.5136C56.533 44.6787 56.664 44.8747 56.7535 45.0904C56.8429 45.3062 56.889 45.5375 56.889 45.771ZM60.444 42.213C60.4441 42.4465 60.3982 42.6777 60.3089 42.8935C60.2196 43.1092 60.0887 43.3052 59.9236 43.4704C59.7586 43.6355 59.5626 43.7666 59.3469 43.856C59.1312 43.9454 58.9 43.9914 58.6665 43.9915C58.433 43.9916 58.2018 43.9456 57.9861 43.8564C57.7703 43.7671 57.5743 43.6362 57.4091 43.4711C57.244 43.306 57.113 43.1101 57.0236 42.8944C56.9341 42.6787 56.8881 42.4475 56.888 42.214C56.888 41.7425 57.0753 41.2902 57.4088 40.9568C57.7422 40.6233 58.1945 40.436 58.666 40.436C59.1376 40.436 59.5898 40.6233 59.9233 40.9568C60.2567 41.2902 60.444 41.7415 60.444 42.213ZM64 38.656C64 39.1277 63.8126 39.5801 63.4791 39.9136C63.1456 40.2471 62.6932 40.4345 62.2215 40.4345C61.7498 40.4345 61.2975 40.2471 60.9639 39.9136C60.6304 39.5801 60.443 39.1277 60.443 38.656C60.443 38.1843 60.6304 37.732 60.9639 37.3984C61.2975 37.0649 61.7498 36.8775 62.2215 36.8775C62.6932 36.8775 63.1456 37.0649 63.4791 37.3984C63.8126 37.732 64 38.1843 64 38.656ZM67.556 35.098C67.5561 35.3316 67.5102 35.5628 67.4208 35.7786C67.3315 35.9945 67.2006 36.1905 67.0355 36.3557C66.8704 36.5209 66.6743 36.652 66.4586 36.7414C66.2428 36.8309 66.0116 36.8769 65.778 36.877C65.5445 36.8771 65.3132 36.8311 65.0974 36.7418C64.8816 36.6525 64.6855 36.5216 64.5203 36.3564C64.3551 36.1913 64.224 35.9953 64.1346 35.7796C64.0452 35.5638 63.9991 35.3326 63.999 35.099C63.9989 34.6273 64.1861 34.1749 64.5196 33.8413C64.853 33.5076 65.3053 33.3201 65.777 33.32C66.2487 33.3199 66.7011 33.5071 67.0348 33.8406C67.3684 34.174 67.5559 34.6263 67.556 35.098ZM71.111 31.54C71.1111 31.7735 71.0652 32.0047 70.9759 32.2205C70.8866 32.4362 70.7557 32.6322 70.5906 32.7974C70.4256 32.9625 70.2296 33.0936 70.0139 33.183C69.7982 33.2724 69.567 33.3184 69.3335 33.3185C69.1 33.3186 68.8688 33.2726 68.6531 33.1834C68.4373 33.0941 68.2413 32.9632 68.0761 32.7981C67.911 32.633 67.78 32.4371 67.6906 32.2214C67.6011 32.0057 67.5551 31.7745 67.555 31.541C67.555 31.0695 67.7424 30.6172 68.0758 30.2838C68.4092 29.9503 68.8615 29.763 69.333 29.763C69.8046 29.763 70.2568 29.9503 70.5903 30.2838C70.9237 30.6172 71.111 31.0685 71.111 31.54ZM32 42.213C32.0001 42.4466 31.9542 42.6778 31.8648 42.8937C31.7755 43.1095 31.6446 43.3055 31.4795 43.4707C31.3144 43.6359 31.1183 43.767 30.9026 43.8564C30.6868 43.9459 30.4556 43.9919 30.222 43.992C29.9885 43.9921 29.7572 43.9461 29.5414 43.8568C29.3256 43.7675 29.1295 43.6366 28.9643 43.4715C28.7991 43.3063 28.668 43.1103 28.5786 42.8946C28.4892 42.6788 28.4431 42.4476 28.443 42.214C28.443 41.7423 28.6304 41.29 28.9639 40.9564C29.2975 40.6229 29.7498 40.4355 30.2215 40.4355C30.6932 40.4355 31.1456 40.6229 31.4791 40.9564C31.8126 41.29 32 41.7413 32 42.213ZM96 10.195C96 10.6667 95.8126 11.1191 95.4791 11.4526C95.1456 11.7861 94.6932 11.9735 94.2215 11.9735C93.7498 11.9735 93.2975 11.7861 92.9639 11.4526C92.6304 11.1191 92.443 10.6667 92.443 10.195C92.443 9.72332 92.6304 9.27095 92.9639 8.93742C93.2975 8.60388 93.7498 8.41651 94.2215 8.41651C94.6932 8.41651 95.1456 8.60388 95.4791 8.93742C95.8126 9.27095 96 9.72332 96 10.195ZM3.55602 68.896C3.55602 69.3677 3.36865 69.8201 3.03511 70.1536C2.70158 70.4871 2.24921 70.6745 1.77752 70.6745C1.30584 70.6745 0.853468 70.4871 0.519934 70.1536C0.186401 69.8201 -0.000976281 69.3677 -0.000976281 68.896C-0.000976281 68.4243 0.186401 67.972 0.519934 67.6384C0.853468 67.3049 1.30584 67.1175 1.77752 67.1175C2.24921 67.1175 2.70158 67.3049 3.03511 67.6384C3.36865 67.972 3.55602 68.4243 3.55602 68.896ZM7.11102 73.343C7.11102 73.8147 6.92365 74.2671 6.59011 74.6006C6.25658 74.9341 5.80421 75.1215 5.33252 75.1215C4.86084 75.1215 4.40847 74.9341 4.07493 74.6006C3.7414 74.2671 3.55402 73.8147 3.55402 73.343C3.55402 72.8713 3.7414 72.419 4.07493 72.0854C4.40847 71.7519 4.86084 71.5645 5.33252 71.5645C5.80421 71.5645 6.25658 71.7519 6.59011 72.0854C6.92365 72.419 7.11102 72.8713 7.11102 73.343ZM88.889 4.85801C88.889 4.62452 88.9349 4.3933 89.0242 4.17756C89.1135 3.96182 89.2444 3.76577 89.4094 3.60062C89.5745 3.43548 89.7705 3.30445 89.9862 3.21504C90.2018 3.12563 90.433 3.07957 90.6665 3.07951C90.9 3.07944 91.1312 3.12537 91.347 3.21466C91.5627 3.30395 91.7588 3.43486 91.9239 3.59992C92.0891 3.76497 92.2201 3.96094 92.3095 4.17663C92.3989 4.39233 92.445 4.62352 92.445 4.85701C92.4452 5.32856 92.258 5.78086 91.9246 6.11439C91.5913 6.44792 91.1391 6.63537 90.6675 6.63551C90.196 6.63564 89.7437 6.44844 89.4101 6.1151C89.0766 5.78175 88.8892 5.32956 88.889 4.85801ZM12.178 11.973C12.1781 12.2066 12.1322 12.4378 12.0428 12.6536C11.9535 12.8695 11.8226 13.0655 11.6575 13.2307C11.4924 13.3959 11.2963 13.527 11.0806 13.6164C10.8648 13.7059 10.6336 13.7519 10.4 13.752C10.1665 13.7521 9.93519 13.7061 9.71938 13.6168C9.50358 13.5275 9.30748 13.3966 9.14229 13.2315C8.97709 13.0663 8.84603 12.8703 8.7566 12.6546C8.66716 12.4388 8.62109 12.2076 8.62102 11.974C8.62102 11.5023 8.8084 11.05 9.14193 10.7164C9.47547 10.3829 9.92784 10.1955 10.3995 10.1955C10.8712 10.1955 11.3236 10.3829 11.6571 10.7164C11.9906 11.05 12.178 11.5023 12.178 11.974V11.973ZM3.55602 10.195C3.55602 10.6667 3.36865 11.1191 3.03511 11.4526C2.70158 11.7861 2.24921 11.9735 1.77752 11.9735C1.30584 11.9735 0.853468 11.7861 0.519934 11.4526C0.186401 11.1191 -0.000976281 10.6667 -0.000976281 10.195C-0.000976281 9.72332 0.186401 9.27095 0.519934 8.93742C0.853468 8.60388 1.30584 8.41651 1.77752 8.41651C2.24921 8.41651 2.70158 8.60388 3.03511 8.93742C3.36865 9.27095 3.55602 9.72332 3.55602 10.195ZM3.55602 36.877C3.55602 37.3487 3.36865 37.8011 3.03511 38.1346C2.70158 38.4681 2.24921 38.6555 1.77752 38.6555C1.30584 38.6555 0.853468 38.4681 0.519934 38.1346C0.186401 37.8011 -0.000976281 37.3487 -0.000976281 36.877C-0.000976281 36.4053 0.186401 35.953 0.519934 35.6194C0.853468 35.2859 1.30584 35.0985 1.77752 35.0985C2.24921 35.0985 2.70158 35.2859 3.03511 35.6194C3.36865 35.953 3.55602 36.4053 3.55602 36.877ZM96 42.213C96.0001 42.4466 95.9542 42.6778 95.8648 42.8937C95.7755 43.1095 95.6446 43.3055 95.4795 43.4707C95.3144 43.6359 95.1183 43.767 94.9026 43.8564C94.6868 43.9459 94.4556 43.9919 94.222 43.992C93.9885 43.9921 93.7572 43.9461 93.5414 43.8568C93.3256 43.7675 93.1295 43.6366 92.9643 43.4715C92.7991 43.3063 92.668 43.1103 92.5786 42.8946C92.4892 42.6788 92.4431 42.4476 92.443 42.214C92.443 41.7423 92.6304 41.29 92.9639 40.9564C93.2975 40.6229 93.7498 40.4355 94.2215 40.4355C94.6932 40.4355 95.1456 40.6229 95.4791 40.9564C95.8126 41.29 96 41.7413 96 42.213ZM3.55602 15.531C3.55609 15.7646 3.51015 15.9958 3.42083 16.2116C3.33152 16.4274 3.20057 16.6235 3.03547 16.7887C2.70203 17.1224 2.24971 17.3099 1.77802 17.31C1.30634 17.3101 0.853915 17.1229 0.520288 16.7894C0.186661 16.456 -0.000843673 16.0037 -0.000976281 15.532C-0.00110889 15.0603 0.186141 14.6079 0.519581 14.2743C0.85302 13.9406 1.30534 13.7531 1.77702 13.753C2.24871 13.7529 2.70113 13.9401 3.03476 14.2736C3.36839 14.607 3.55589 15.0593 3.55602 15.531ZM3.55602 42.213C3.55609 42.4466 3.51015 42.6778 3.42083 42.8937C3.33152 43.1095 3.20057 43.3055 3.03547 43.4707C2.70203 43.8044 2.24971 43.9919 1.77802 43.992C1.30634 43.9921 0.853915 43.8049 0.520288 43.4715C0.186661 43.138 -0.000843673 42.6857 -0.000976281 42.214C-0.000976281 41.7423 0.186401 41.29 0.519934 40.9564C0.853468 40.6229 1.30584 40.4355 1.77752 40.4355C2.24921 40.4355 2.70158 40.6229 3.03511 40.9564C3.36865 41.29 3.55602 41.7413 3.55602 42.213ZM96 47.55C96 48.0217 95.8126 48.4741 95.4791 48.8076C95.1456 49.1411 94.6932 49.3285 94.2215 49.3285C93.7498 49.3285 93.2975 49.1411 92.9639 48.8076C92.6304 48.4741 92.443 48.0217 92.443 47.55C92.443 47.0783 92.6304 46.626 92.9639 46.2924C93.2975 45.9589 93.7498 45.7715 94.2215 45.7715C94.6932 45.7715 95.1456 45.9589 95.4791 46.2924C95.8126 46.626 96 47.0783 96 47.55ZM3.55602 20.867C3.55615 21.1006 3.51028 21.3319 3.42103 21.5477C3.33177 21.7635 3.20088 21.9596 3.03582 22.1249C2.87076 22.2901 2.67478 22.4212 2.45905 22.5107C2.24332 22.6002 2.01208 22.6464 1.77852 22.6465C1.54497 22.6466 1.31367 22.6008 1.09785 22.5115C0.882017 22.4223 0.685883 22.2914 0.520641 22.1263C0.3554 21.9612 0.224286 21.7653 0.134787 21.5495C0.0452873 21.3338 -0.000844963 21.1026 -0.000976281 20.869C-0.00124149 20.3973 0.185881 19.9448 0.519227 19.6111C0.852573 19.2774 1.30484 19.0898 1.77652 19.0895C2.24821 19.0892 2.70068 19.2764 3.03441 19.6097C3.36813 19.9431 3.55576 20.3953 3.55602 20.867ZM96 26.204C96.0001 26.4376 95.9542 26.6688 95.8648 26.8846C95.7755 27.1005 95.6446 27.2965 95.4795 27.4617C95.146 27.7954 94.6937 27.9829 94.222 27.983C93.7503 27.9831 93.2979 27.7959 92.9643 27.4625C92.6307 27.129 92.4432 26.6767 92.443 26.205C92.4429 25.7333 92.6301 25.2809 92.9636 24.9473C93.297 24.6136 93.7493 24.4261 94.221 24.426C94.6927 24.4259 95.1451 24.6131 95.4788 24.9466C95.8124 25.28 95.9999 25.7323 96 26.204ZM96 15.531C96.0001 15.7646 95.9542 15.9958 95.8648 16.2116C95.7755 16.4274 95.6446 16.6235 95.4795 16.7887C95.146 17.1224 94.6937 17.3099 94.222 17.31C93.7503 17.3101 93.2979 17.1229 92.9643 16.7894C92.6307 16.456 92.4432 16.0037 92.443 15.532C92.4429 15.0603 92.6301 14.6079 92.9636 14.2743C93.297 13.9406 93.7493 13.7531 94.221 13.753C94.6927 13.7529 95.1451 13.9401 95.4788 14.2736C95.8124 14.607 95.9999 15.0593 96 15.531ZM3.55602 47.55C3.55602 48.0217 3.36865 48.4741 3.03511 48.8076C2.70158 49.1411 2.24921 49.3285 1.77752 49.3285C1.30584 49.3285 0.853468 49.1411 0.519934 48.8076C0.186401 48.4741 -0.000976281 48.0217 -0.000976281 47.55C-0.000976281 47.0783 0.186401 46.626 0.519934 46.2924C0.853468 45.9589 1.30584 45.7715 1.77752 45.7715C2.24921 45.7715 2.70158 45.9589 3.03511 46.2924C3.36865 46.626 3.55602 47.0783 3.55602 47.55ZM96 52.886C96.0001 53.1196 95.9542 53.3508 95.8648 53.5666C95.7755 53.7824 95.6446 53.9785 95.4795 54.1437C95.3144 54.3089 95.1183 54.44 94.9026 54.5294C94.6868 54.6189 94.4556 54.6649 94.222 54.665C93.9885 54.6651 93.7572 54.6191 93.5414 54.5298C93.3256 54.4405 93.1295 54.3096 92.9643 54.1445C92.7991 53.9793 92.668 53.7833 92.5786 53.5676C92.4892 53.3518 92.4431 53.1206 92.443 52.887C92.443 52.4153 92.6304 51.963 92.9639 51.6294C93.2975 51.2959 93.7498 51.1085 94.2215 51.1085C94.6932 51.1085 95.1456 51.2959 95.4791 51.6294C95.8126 51.963 96 52.4143 96 52.886ZM3.55602 26.204C3.55602 26.6757 3.36865 27.1281 3.03511 27.4616C2.70158 27.7951 2.24921 27.9825 1.77752 27.9825C1.30584 27.9825 0.853468 27.7951 0.519934 27.4616C0.186401 27.1281 -0.000976281 26.6757 -0.000976281 26.204C-0.000976281 25.7323 0.186401 25.28 0.519934 24.9464C0.853468 24.6129 1.30584 24.4255 1.77752 24.4255C2.24921 24.4255 2.70158 24.6129 3.03511 24.9464C3.36865 25.28 3.55602 25.7323 3.55602 26.204ZM96 31.54C96.0001 31.7736 95.9542 32.0048 95.8648 32.2206C95.7755 32.4365 95.6446 32.6325 95.4795 32.7977C95.146 33.1314 94.6937 33.3189 94.222 33.319C93.7503 33.3191 93.2979 33.1319 92.9643 32.7985C92.6307 32.465 92.4432 32.0127 92.443 31.541C92.443 31.0693 92.6304 30.617 92.9639 30.2834C93.2975 29.9499 93.7498 29.7625 94.2215 29.7625C94.6932 29.7625 95.1456 29.9499 95.4791 30.2834C95.8126 30.617 96 31.0683 96 31.54ZM96 20.867C96.0002 21.1006 95.9543 21.3319 95.865 21.5477C95.7758 21.7635 95.6449 21.9596 95.4798 22.1249C95.3148 22.2901 95.1188 22.4212 94.903 22.5107C94.6873 22.6002 94.4561 22.6464 94.2225 22.6465C93.989 22.6466 93.7577 22.6008 93.5418 22.5115C93.326 22.4223 93.1299 22.2914 92.9646 22.1263C92.7994 21.9612 92.6683 21.7653 92.5788 21.5495C92.4893 21.3338 92.4432 21.1026 92.443 20.869C92.4428 20.3973 92.6299 19.9448 92.9632 19.6111C93.2966 19.2774 93.7488 19.0898 94.2205 19.0895C94.6922 19.0892 95.1447 19.2764 95.4784 19.6097C95.8121 19.9431 95.9998 20.3953 96 20.867ZM3.55602 52.886C3.55616 53.3577 3.36891 53.8101 3.03547 54.1437C2.70203 54.4774 2.24971 54.6649 1.77802 54.665C1.30634 54.6651 0.853915 54.4779 0.520288 54.1445C0.186661 53.811 -0.000843673 53.3587 -0.000976281 52.887C-0.000976281 52.4153 0.186401 51.963 0.519934 51.6294C0.853468 51.2959 1.30584 51.1085 1.77752 51.1085C2.24921 51.1085 2.70158 51.2959 3.03511 51.6294C3.36865 51.963 3.55602 52.4143 3.55602 52.886ZM96 58.223C96 58.6947 95.8126 59.1471 95.4791 59.4806C95.1456 59.8141 94.6932 60.0015 94.2215 60.0015C93.7498 60.0015 93.2975 59.8141 92.9639 59.4806C92.6304 59.1471 92.443 58.6947 92.443 58.223C92.443 57.7513 92.6304 57.299 92.9639 56.9654C93.2975 56.6319 93.7498 56.4445 94.2215 56.4445C94.6932 56.4445 95.1456 56.6319 95.4791 56.9654C95.8126 57.299 96 57.7513 96 58.223ZM3.55602 31.54C3.55609 31.7736 3.51015 32.0048 3.42083 32.2206C3.33152 32.4365 3.20057 32.6325 3.03547 32.7977C2.70203 33.1314 2.24971 33.3189 1.77802 33.319C1.30634 33.3191 0.853915 33.1319 0.520288 32.7985C0.186661 32.465 -0.000843673 32.0127 -0.000976281 31.541C-0.000976281 31.0693 0.186401 30.617 0.519934 30.2834C0.853468 29.9499 1.30584 29.7625 1.77752 29.7625C2.24921 29.7625 2.70158 29.9499 3.03511 30.2834C3.36865 30.617 3.55602 31.0683 3.55602 31.54ZM96 36.877C96.0001 37.1106 95.9542 37.3418 95.8648 37.5576C95.7755 37.7735 95.6446 37.9695 95.4795 38.1347C95.3144 38.2999 95.1183 38.431 94.9026 38.5204C94.6868 38.6099 94.4556 38.6559 94.222 38.656C93.9885 38.6561 93.7572 38.6101 93.5414 38.5208C93.3256 38.4315 93.1295 38.3006 92.9643 38.1355C92.7991 37.9703 92.668 37.7743 92.5786 37.5586C92.4892 37.3428 92.4431 37.1116 92.443 36.878C92.4429 36.4063 92.6301 35.9539 92.9636 35.6203C93.297 35.2866 93.7493 35.0991 94.221 35.099C94.6927 35.0989 95.1451 35.2861 95.4788 35.6196C95.8124 35.953 95.9999 36.4053 96 36.877ZM3.55602 58.223C3.55602 58.6947 3.36865 59.1471 3.03511 59.4806C2.70158 59.8141 2.24921 60.0015 1.77752 60.0015C1.30584 60.0015 0.853468 59.8141 0.519934 59.4806C0.186401 59.1471 -0.000976281 58.6947 -0.000976281 58.223C-0.000976281 57.7513 0.186401 57.299 0.519934 56.9654C0.853468 56.6319 1.30584 56.4445 1.77752 56.4445C2.24921 56.4445 2.70158 56.6319 3.03511 56.9654C3.36865 57.299 3.55602 57.7513 3.55602 58.223ZM3.55602 63.56C3.55602 64.0317 3.36865 64.4841 3.03511 64.8176C2.70158 65.1511 2.24921 65.3385 1.77752 65.3385C1.30584 65.3385 0.853468 65.1511 0.519934 64.8176C0.186401 64.4841 -0.000976281 64.0317 -0.000976281 63.56C-0.000976281 63.0883 0.186401 62.636 0.519934 62.3024C0.853468 61.9689 1.30584 61.7815 1.77752 61.7815C2.24921 61.7815 2.70158 61.9689 3.03511 62.3024C3.36865 62.636 3.55602 63.0883 3.55602 63.56ZM12.444 75.122C12.444 75.5936 12.2567 76.0458 11.9233 76.3792C11.5898 76.7127 11.1376 76.9 10.666 76.9C10.1945 76.9 9.74223 76.7127 9.40879 76.3792C9.07535 76.0458 8.88802 75.5936 8.88802 75.122C8.88802 74.6505 9.07535 74.1982 9.40879 73.8648C9.74223 73.5313 10.1945 73.344 10.666 73.344C11.1376 73.344 11.5898 73.5313 11.9233 73.8648C12.2567 74.1982 12.444 74.6505 12.444 75.122ZM83.556 3.08001C83.5559 2.84652 83.6017 2.61529 83.691 2.39952C83.7802 2.18375 83.9111 1.98767 84.0761 1.82248C84.2411 1.65728 84.437 1.52621 84.6527 1.43673C84.8684 1.34726 85.0995 1.30114 85.333 1.30101C85.5665 1.30088 85.7977 1.34673 86.0135 1.43597C86.2293 1.5252 86.4254 1.65605 86.5906 1.82106C86.7557 1.98607 86.8868 2.18201 86.9763 2.39767C87.0658 2.61334 87.1119 2.84452 87.112 3.07801C87.1122 3.54956 86.925 4.00186 86.5916 4.33539C86.2583 4.66892 85.8061 4.85637 85.3345 4.85651C84.863 4.85664 84.4107 4.66944 84.0771 4.3361C83.7436 4.00275 83.5562 3.55156 83.556 3.08001ZM22.844 11.973C22.8441 12.2065 22.7982 12.4377 22.7089 12.6535C22.6196 12.8692 22.4887 13.0652 22.3236 13.2304C22.1586 13.3955 21.9626 13.5266 21.7469 13.616C21.5312 13.7054 21.3 13.7514 21.0665 13.7515C20.833 13.7516 20.6018 13.7056 20.3861 13.6164C20.1703 13.5271 19.9743 13.3962 19.8091 13.2311C19.4756 12.8978 19.2882 12.4456 19.288 11.974C19.288 11.5025 19.4753 11.0502 19.8088 10.7168C20.1422 10.3833 20.5945 10.196 21.066 10.196C21.5376 10.196 21.9898 10.3833 22.3233 10.7168C22.6567 11.0502 22.844 11.5025 22.844 11.974V11.973ZM23.111 75.122C23.111 75.5936 22.9237 76.0458 22.5903 76.3792C22.2568 76.7127 21.8046 76.9 21.333 76.9C20.8615 76.9 20.4092 76.7127 20.0758 76.3792C19.7423 76.0458 19.555 75.5936 19.555 75.122C19.555 74.6505 19.7423 74.1982 20.0758 73.8648C20.4092 73.5313 20.8615 73.344 21.333 73.344C21.8046 73.344 22.2568 73.5313 22.5903 73.8648C22.9237 74.1982 23.111 74.6505 23.111 75.122ZM72.889 3.08001C72.8889 2.84652 72.9347 2.61529 73.024 2.39952C73.1132 2.18375 73.2441 1.98767 73.4091 1.82248C73.5741 1.65728 73.77 1.52621 73.9857 1.43673C74.2014 1.34726 74.4325 1.30114 74.666 1.30101C74.8995 1.30088 75.1307 1.34673 75.3465 1.43597C75.5623 1.5252 75.7584 1.65605 75.9236 1.82106C76.0887 1.98607 76.2198 2.18201 76.3093 2.39767C76.3988 2.61334 76.4449 2.84452 76.445 3.07801C76.4452 3.54956 76.258 4.00186 75.9246 4.33539C75.5913 4.66892 75.1391 4.85637 74.6675 4.85651C74.196 4.85664 73.7437 4.66944 73.4101 4.3361C73.0766 4.00275 72.8892 3.55156 72.889 3.08001ZM33.778 75.122C33.778 75.5937 33.5906 76.0461 33.2571 76.3796C32.9236 76.7131 32.4712 76.9005 31.9995 76.9005C31.5278 76.9005 31.0755 76.7131 30.7419 76.3796C30.4084 76.0461 30.221 75.5937 30.221 75.122C30.221 74.6503 30.4084 74.198 30.7419 73.8644C31.0755 73.5309 31.5278 73.3435 31.9995 73.3435C32.4712 73.3435 32.9236 73.5309 33.2571 73.8644C33.5906 74.198 33.778 74.6503 33.778 75.122ZM62.222 3.08001C62.2219 2.84645 62.2678 2.61516 62.357 2.39933C62.4463 2.1835 62.5772 1.98737 62.7422 1.82212C62.9073 1.65688 63.1033 1.52577 63.319 1.43627C63.5347 1.34677 63.766 1.30064 63.9995 1.30051C64.2331 1.30038 64.4644 1.34625 64.6802 1.4355C64.896 1.52476 65.0922 1.65565 65.2574 1.82071C65.4226 1.98577 65.5538 2.18175 65.6433 2.39748C65.7328 2.61321 65.7789 2.84445 65.779 3.07801C65.7792 3.54969 65.5919 4.00212 65.2585 4.33574C64.925 4.66937 64.4727 4.85687 64.001 4.85701C63.5293 4.85714 63.0769 4.66989 62.7433 4.33645C62.4097 4.00301 62.2222 3.55169 62.222 3.08001ZM44.444 75.122C44.444 75.3555 44.398 75.5867 44.3087 75.8024C44.2193 76.0181 44.0884 76.2141 43.9233 76.3792C43.7582 76.5443 43.5622 76.6753 43.3464 76.7647C43.1307 76.854 42.8995 76.9 42.666 76.9C42.4325 76.9 42.2013 76.854 41.9856 76.7647C41.7699 76.6753 41.5739 76.5443 41.4088 76.3792C41.2437 76.2141 41.1127 76.0181 41.0234 75.8024C40.934 75.5867 40.888 75.3555 40.888 75.122C40.888 74.6505 41.0753 74.1982 41.4088 73.8648C41.7422 73.5313 42.1945 73.344 42.666 73.344C43.1376 73.344 43.5898 73.5313 43.9233 73.8648C44.2567 74.1982 44.444 74.6505 44.444 75.122ZM51.556 3.08001C51.5559 2.84652 51.6018 2.61529 51.691 2.39952C51.7802 2.18375 51.9111 1.98767 52.0761 1.82248C52.2411 1.65728 52.437 1.52621 52.6527 1.43673C52.8684 1.34726 53.0995 1.30114 53.333 1.30101C53.5665 1.30088 53.7977 1.34673 54.0135 1.43597C54.2293 1.5252 54.4254 1.65605 54.5906 1.82106C54.7557 1.98607 54.8868 2.18201 54.9763 2.39767C55.0658 2.61334 55.1119 2.84452 55.112 3.07801C55.1122 3.54956 54.925 4.00186 54.5916 4.33539C54.2583 4.66892 53.8061 4.85637 53.3345 4.85651C52.863 4.85664 52.4107 4.66944 52.0771 4.3361C51.7436 4.00275 51.5562 3.55156 51.556 3.08001ZM55.111 75.122C55.111 75.5936 54.9237 76.0458 54.5903 76.3792C54.2568 76.7127 53.8046 76.9 53.333 76.9C52.8615 76.9 52.4092 76.7127 52.0758 76.3792C51.7423 76.0458 51.555 75.5936 51.555 75.122C51.555 74.6505 51.7423 74.1982 52.0758 73.8648C52.4092 73.5313 52.8615 73.344 53.333 73.344C53.8046 73.344 54.2568 73.5313 54.5903 73.8648C54.9237 74.1982 55.111 74.6505 55.111 75.122ZM40.889 3.08001C40.8889 2.84652 40.9348 2.61529 41.024 2.39952C41.1132 2.18375 41.2441 1.98767 41.4091 1.82248C41.5741 1.65728 41.77 1.52621 41.9857 1.43673C42.2014 1.34726 42.4325 1.30114 42.666 1.30101C42.8995 1.30088 43.1307 1.34673 43.3465 1.43597C43.5623 1.5252 43.7584 1.65605 43.9236 1.82106C44.0887 1.98607 44.2198 2.18201 44.3093 2.39767C44.3988 2.61334 44.4449 2.84452 44.445 3.07801C44.4452 3.54956 44.258 4.00186 43.9246 4.33539C43.5913 4.66892 43.1391 4.85637 42.6675 4.85651C42.196 4.85664 41.7437 4.66944 41.4101 4.3361C41.0766 4.00275 40.8892 3.55156 40.889 3.08001ZM76.444 75.122C76.444 75.5936 76.2567 76.0458 75.9233 76.3792C75.5898 76.7127 75.1376 76.9 74.666 76.9C74.1945 76.9 73.7422 76.7127 73.4088 76.3792C73.0754 76.0458 72.888 75.5936 72.888 75.122C72.888 74.6505 73.0754 74.1982 73.4088 73.8648C73.7422 73.5313 74.1945 73.344 74.666 73.344C75.1376 73.344 75.5898 73.5313 75.9233 73.8648C76.2567 74.1982 76.444 74.6505 76.444 75.122ZM19.556 3.08001C19.5558 2.60845 19.7428 2.15611 20.0761 1.82248C20.4093 1.48885 20.8615 1.30127 21.333 1.30101C21.8046 1.30074 22.2569 1.48781 22.5906 1.82106C22.9242 2.15432 23.1118 2.60645 23.112 3.07801C23.1122 3.54956 22.925 4.00186 22.5916 4.33539C22.4266 4.50054 22.2306 4.63156 22.0149 4.72097C21.7992 4.81039 21.568 4.85644 21.3345 4.85651C21.101 4.85657 20.8698 4.81065 20.6541 4.72136C20.4383 4.63206 20.2423 4.50115 20.0771 4.3361C19.7436 4.00275 19.5562 3.55156 19.556 3.08001ZM60.444 75.122C60.444 75.3555 60.398 75.5867 60.3087 75.8024C60.2193 76.0181 60.0884 76.2141 59.9233 76.3792C59.7582 76.5443 59.5622 76.6753 59.3464 76.7647C59.1307 76.854 58.8995 76.9 58.666 76.9C58.4325 76.9 58.2013 76.854 57.9856 76.7647C57.7699 76.6753 57.5739 76.5443 57.4088 76.3792C57.2437 76.2141 57.1127 76.0181 57.0234 75.8024C56.934 75.5867 56.888 75.3555 56.888 75.122C56.888 74.6505 57.0753 74.1982 57.4088 73.8648C57.7422 73.5313 58.1945 73.344 58.666 73.344C59.1376 73.344 59.5898 73.5313 59.9233 73.8648C60.2567 74.1982 60.444 74.6505 60.444 75.122ZM35.556 3.08001C35.5559 2.84652 35.6018 2.61529 35.691 2.39952C35.7802 2.18375 35.9111 1.98767 36.0761 1.82248C36.2411 1.65728 36.437 1.52621 36.6527 1.43673C36.8684 1.34726 37.0995 1.30114 37.333 1.30101C37.5665 1.30088 37.7977 1.34673 38.0135 1.43597C38.2293 1.5252 38.4254 1.65605 38.5906 1.82106C38.7557 1.98607 38.8868 2.18201 38.9763 2.39767C39.0658 2.61334 39.1119 2.84452 39.112 3.07801C39.1122 3.54956 38.925 4.00186 38.5916 4.33539C38.2583 4.66892 37.8061 4.85637 37.3345 4.85651C36.863 4.85664 36.4107 4.66944 36.0771 4.3361C35.7436 4.00275 35.5562 3.55156 35.556 3.08001ZM81.778 75.122C81.778 75.5937 81.5906 76.0461 81.2571 76.3796C80.9236 76.7131 80.4712 76.9005 79.9995 76.9005C79.5278 76.9005 79.0755 76.7131 78.7419 76.3796C78.4084 76.0461 78.221 75.5937 78.221 75.122C78.221 74.6503 78.4084 74.198 78.7419 73.8644C79.0755 73.5309 79.5278 73.3435 79.9995 73.3435C80.4712 73.3435 80.9236 73.5309 81.2571 73.8644C81.5906 74.198 81.778 74.6503 81.778 75.122ZM14.222 3.08001C14.2219 2.84645 14.2678 2.61516 14.357 2.39933C14.4463 2.1835 14.5772 1.98737 14.7422 1.82212C14.9073 1.65688 15.1033 1.52577 15.319 1.43627C15.5347 1.34677 15.766 1.30064 15.9995 1.30051C16.2331 1.30038 16.4644 1.34625 16.6802 1.4355C16.896 1.52476 17.0922 1.65565 17.2574 1.82071C17.4226 1.98577 17.5538 2.18175 17.6433 2.39748C17.7328 2.61321 17.7789 2.84445 17.779 3.07801C17.7792 3.54969 17.5919 4.00212 17.2585 4.33574C16.925 4.66937 16.4727 4.85687 16.001 4.85701C15.5293 4.85714 15.0769 4.66989 14.7433 4.33645C14.4097 4.00301 14.2222 3.55169 14.222 3.08001ZM65.778 75.122C65.778 75.5937 65.5906 76.0461 65.2571 76.3796C64.9236 76.7131 64.4712 76.9005 63.9995 76.9005C63.5278 76.9005 63.0755 76.7131 62.7419 76.3796C62.4084 76.0461 62.221 75.5937 62.221 75.122C62.221 74.6503 62.4084 74.198 62.7419 73.8644C63.0755 73.5309 63.5278 73.3435 63.9995 73.3435C64.4712 73.3435 64.9236 73.5309 65.2571 73.8644C65.5906 74.198 65.778 74.6503 65.778 75.122ZM30.222 3.08001C30.2218 2.60832 30.4089 2.15585 30.7422 1.82212C31.0756 1.4884 31.5278 1.30077 31.9995 1.30051C32.4712 1.30024 32.9237 1.48736 33.2574 1.82071C33.5911 2.15406 33.7788 2.60632 33.779 3.07801C33.7792 3.54969 33.5919 4.00212 33.2585 4.33574C32.925 4.66937 32.4727 4.85687 32.001 4.85701C31.5293 4.85714 31.0769 4.66989 30.7433 4.33645C30.4097 4.00301 30.2222 3.55169 30.222 3.08001ZM87.111 75.122C87.111 75.3555 87.065 75.5867 86.9757 75.8024C86.8863 76.0181 86.7554 76.2141 86.5903 76.3792C86.4252 76.5443 86.2292 76.6753 86.0134 76.7647C85.7977 76.854 85.5665 76.9 85.333 76.9C85.0995 76.9 84.8683 76.854 84.6526 76.7647C84.4369 76.6753 84.2409 76.5443 84.0758 76.3792C83.9107 76.2141 83.7797 76.0181 83.6904 75.8024C83.601 75.5867 83.555 75.3555 83.555 75.122C83.555 74.6505 83.7424 74.1982 84.0758 73.8648C84.4092 73.5313 84.8615 73.344 85.333 73.344C85.8046 73.344 86.2568 73.5313 86.5903 73.8648C86.9237 74.1982 87.111 74.6505 87.111 75.122ZM8.88902 3.08001C8.88889 2.84645 8.93476 2.61516 9.02402 2.39933C9.11328 2.1835 9.24417 1.98737 9.40923 1.82212C9.57428 1.65688 9.77027 1.52577 9.986 1.43627C10.2017 1.34677 10.433 1.30064 10.6665 1.30051C10.9001 1.30038 11.1314 1.34625 11.3472 1.4355C11.563 1.52476 11.7592 1.65565 11.9244 1.82071C12.0896 1.98577 12.2208 2.18175 12.3103 2.39748C12.3998 2.61321 12.4459 2.84445 12.446 3.07801C12.4462 3.54969 12.2589 4.00212 11.9255 4.33574C11.592 4.66937 11.1397 4.85687 10.668 4.85701C10.1963 4.85714 9.74392 4.66989 9.41029 4.33645C9.07666 4.00301 8.88916 3.55169 8.88902 3.08001ZM92.444 73.343C92.444 73.8146 92.2567 74.2668 91.9233 74.6002C91.5898 74.9337 91.1376 75.121 90.666 75.121C90.1945 75.121 89.7422 74.9337 89.4088 74.6002C89.0754 74.2668 88.888 73.8146 88.888 73.343C88.888 72.8715 89.0754 72.4192 89.4088 72.0858C89.7422 71.7523 90.1945 71.565 90.666 71.565C91.1376 71.565 91.5898 71.7523 91.9233 72.0858C92.2567 72.4192 92.444 72.8715 92.444 73.343ZM3.55602 4.85801C3.55589 4.38645 3.74309 3.93416 4.07643 3.60062C4.40978 3.26709 4.86197 3.07964 5.33352 3.07951C5.80508 3.07937 6.25737 3.26657 6.59091 3.59992C6.92444 3.93326 7.11189 4.38545 7.11202 4.85701C7.11209 5.0905 7.06617 5.32171 6.97687 5.53746C6.88758 5.7532 6.75667 5.94924 6.59161 6.11439C6.42656 6.27954 6.23059 6.41056 6.0149 6.49997C5.79921 6.58939 5.56801 6.63544 5.33452 6.63551C5.10103 6.63557 4.86982 6.58965 4.65407 6.50036C4.43833 6.41106 4.24229 6.28015 4.07714 6.1151C3.74361 5.78175 3.55616 5.32956 3.55602 4.85801ZM96 68.896C96 69.3677 95.8126 69.8201 95.4791 70.1536C95.1456 70.4871 94.6932 70.6745 94.2215 70.6745C93.7498 70.6745 93.2975 70.4871 92.9639 70.1536C92.6304 69.8201 92.443 69.3677 92.443 68.896C92.443 68.4243 92.6304 67.972 92.9639 67.6384C93.2975 67.3049 93.7498 67.1175 94.2215 67.1175C94.6932 67.1175 95.1456 67.3049 95.4791 67.6384C95.8126 67.972 96 68.4243 96 68.896ZM96 63.56C96 64.0317 95.8126 64.4841 95.4791 64.8176C95.1456 65.1511 94.6932 65.3385 94.2215 65.3385C93.7498 65.3385 93.2975 65.1511 92.9639 64.8176C92.6304 64.4841 92.443 64.0317 92.443 63.56C92.443 63.0883 92.6304 62.636 92.9639 62.3024C93.2975 61.9689 93.7498 61.7815 94.2215 61.7815C94.6932 61.7815 95.1456 61.9689 95.4791 62.3024C95.8126 62.636 96 63.0883 96 63.56ZM17.511 11.973C17.5111 12.2065 17.4652 12.4377 17.3759 12.6535C17.2866 12.8692 17.1557 13.0652 16.9906 13.2304C16.8256 13.3955 16.6296 13.5266 16.4139 13.616C16.1982 13.7054 15.967 13.7514 15.7335 13.7515C15.5 13.7516 15.2688 13.7056 15.0531 13.6164C14.8373 13.5271 14.6413 13.3962 14.4761 13.2311C14.1426 12.8978 13.9552 12.4456 13.955 11.974C13.955 11.5025 14.1423 11.0502 14.4758 10.7168C14.8092 10.3833 15.2615 10.196 15.733 10.196C16.2046 10.196 16.6568 10.3833 16.9903 10.7168C17.3237 11.0502 17.511 11.5025 17.511 11.974V11.973ZM17.778 75.122C17.778 75.5937 17.5906 76.0461 17.2571 76.3796C16.9236 76.7131 16.4712 76.9005 15.9995 76.9005C15.5278 76.9005 15.0755 76.7131 14.7419 76.3796C14.4084 76.0461 14.221 75.5937 14.221 75.122C14.221 74.6503 14.4084 74.198 14.7419 73.8644C15.0755 73.5309 15.5278 73.3435 15.9995 73.3435C16.4712 73.3435 16.9236 73.5309 17.2571 73.8644C17.5906 74.198 17.778 74.6503 17.778 75.122ZM78.222 3.08001C78.2219 2.84645 78.2678 2.61516 78.357 2.39933C78.4463 2.1835 78.5772 1.98737 78.7422 1.82212C78.9073 1.65688 79.1033 1.52577 79.319 1.43627C79.5347 1.34677 79.766 1.30064 79.9995 1.30051C80.2331 1.30038 80.4644 1.34625 80.6802 1.4355C80.896 1.52476 81.0922 1.65565 81.2574 1.82071C81.4226 1.98577 81.5538 2.18175 81.6433 2.39748C81.7328 2.61321 81.7789 2.84445 81.779 3.07801C81.7792 3.54969 81.5919 4.00212 81.2585 4.33574C80.925 4.66937 80.4727 4.85687 80.001 4.85701C79.5293 4.85714 79.0769 4.66989 78.7433 4.33645C78.4097 4.00301 78.2222 3.55169 78.222 3.08001ZM28.444 75.122C28.444 75.5936 28.2567 76.0458 27.9233 76.3792C27.5898 76.7127 27.1376 76.9 26.666 76.9C26.1945 76.9 25.7422 76.7127 25.4088 76.3792C25.0753 76.0458 24.888 75.5936 24.888 75.122C24.888 74.6505 25.0753 74.1982 25.4088 73.8648C25.7422 73.5313 26.1945 73.344 26.666 73.344C27.1376 73.344 27.5898 73.5313 27.9233 73.8648C28.2567 74.1982 28.444 74.6505 28.444 75.122ZM67.556 3.08001C67.5559 2.84652 67.6017 2.61529 67.691 2.39952C67.7802 2.18375 67.9111 1.98767 68.0761 1.82248C68.2411 1.65728 68.437 1.52621 68.6527 1.43673C68.8684 1.34726 69.0995 1.30114 69.333 1.30101C69.5665 1.30088 69.7977 1.34673 70.0135 1.43597C70.2293 1.5252 70.4254 1.65605 70.5906 1.82106C70.7557 1.98607 70.8868 2.18201 70.9763 2.39767C71.0658 2.61334 71.1119 2.84452 71.112 3.07801C71.1122 3.54956 70.925 4.00186 70.5916 4.33539C70.2583 4.66892 69.8061 4.85637 69.3345 4.85651C68.863 4.85664 68.4107 4.66944 68.0771 4.3361C67.7436 4.00275 67.5562 3.55156 67.556 3.08001ZM39.111 75.122C39.111 75.5936 38.9237 76.0458 38.5903 76.3792C38.2568 76.7127 37.8046 76.9 37.333 76.9C36.8615 76.9 36.4092 76.7127 36.0758 76.3792C35.7423 76.0458 35.555 75.5936 35.555 75.122C35.555 74.6505 35.7423 74.1982 36.0758 73.8648C36.4092 73.5313 36.8615 73.344 37.333 73.344C37.8046 73.344 38.2568 73.5313 38.5903 73.8648C38.9237 74.1982 39.111 74.6505 39.111 75.122ZM56.889 3.08001C56.8889 2.84652 56.9348 2.61529 57.024 2.39952C57.1132 2.18375 57.2441 1.98767 57.4091 1.82248C57.5741 1.65728 57.77 1.52621 57.9857 1.43673C58.2014 1.34726 58.4325 1.30114 58.666 1.30101C58.8995 1.30088 59.1307 1.34673 59.3465 1.43597C59.5623 1.5252 59.7584 1.65605 59.9236 1.82106C60.0887 1.98607 60.2198 2.18201 60.3093 2.39767C60.3988 2.61334 60.4449 2.84452 60.445 3.07801C60.4452 3.54956 60.258 4.00186 59.9246 4.33539C59.5913 4.66892 59.1391 4.85637 58.6675 4.85651C58.196 4.85664 57.7437 4.66944 57.4101 4.3361C57.0766 4.00275 56.8892 3.55156 56.889 3.08001ZM49.778 75.122C49.778 75.5937 49.5906 76.0461 49.2571 76.3796C48.9236 76.7131 48.4712 76.9005 47.9995 76.9005C47.5278 76.9005 47.0755 76.7131 46.7419 76.3796C46.4084 76.0461 46.221 75.5937 46.221 75.122C46.221 74.6503 46.4084 74.198 46.7419 73.8644C47.0755 73.5309 47.5278 73.3435 47.9995 73.3435C48.4712 73.3435 48.9236 73.5309 49.2571 73.8644C49.5906 74.198 49.778 74.6503 49.778 75.122ZM46.222 3.08001C46.2218 2.60832 46.4089 2.15585 46.7422 1.82212C47.0756 1.4884 47.5278 1.30077 47.9995 1.30051C48.4712 1.30024 48.9237 1.48736 49.2574 1.82071C49.5911 2.15406 49.7788 2.60632 49.779 3.07801C49.7791 3.31156 49.7332 3.54284 49.6438 3.75865C49.5545 3.97445 49.4236 4.17055 49.2585 4.33574C48.925 4.66937 48.4727 4.85687 48.001 4.85701C47.5293 4.85714 47.0769 4.66989 46.7433 4.33645C46.4097 4.00301 46.2222 3.55169 46.222 3.08001ZM71.111 75.122C71.111 75.3555 71.065 75.5867 70.9757 75.8024C70.8863 76.0181 70.7554 76.2141 70.5903 76.3792C70.4252 76.5443 70.2292 76.6753 70.0134 76.7647C69.7977 76.854 69.5665 76.9 69.333 76.9C69.0995 76.9 68.8683 76.854 68.6526 76.7647C68.4369 76.6753 68.2409 76.5443 68.0758 76.3792C67.9107 76.2141 67.7797 76.0181 67.6904 75.8024C67.601 75.5867 67.555 75.3555 67.555 75.122C67.555 74.6505 67.7424 74.1982 68.0758 73.8648C68.4092 73.5313 68.8615 73.344 69.333 73.344C69.8046 73.344 70.2568 73.5313 70.5903 73.8648C70.9237 74.1982 71.111 74.6505 71.111 75.122ZM24.889 3.08001C24.8889 2.84652 24.9348 2.61529 25.024 2.39952C25.1132 2.18375 25.2441 1.98767 25.4091 1.82248C25.5741 1.65728 25.77 1.52621 25.9857 1.43673C26.2014 1.34726 26.4325 1.30114 26.666 1.30101C26.8995 1.30088 27.1307 1.34673 27.3465 1.43597C27.5623 1.5252 27.7584 1.65605 27.9236 1.82106C28.0887 1.98607 28.2198 2.18201 28.3093 2.39767C28.3988 2.61334 28.4449 2.84452 28.445 3.07801C28.4452 3.54956 28.258 4.00186 27.9246 4.33539C27.7596 4.50054 27.5636 4.63156 27.3479 4.72097C27.1322 4.81039 26.901 4.85644 26.6675 4.85651C26.434 4.85657 26.2028 4.81065 25.9871 4.72136C25.7713 4.63206 25.5753 4.50115 25.4101 4.3361C25.0766 4.00275 24.8892 3.55156 24.889 3.08001Z" fill="#46FF42"/>
</g>
<defs>
<clipPath id="clip0_17_23861">
<rect width="96" height="77" fill="white" transform="translate(0 0.5)"/>
</clipPath>
</defs>
</svg>
