<svg xmlns="http://www.w3.org/2000/svg" width="103" height="101" fill="none" viewBox="0 0 103 101"><path fill="#46FF42" d="M3.829 5.976a1.71 1.71 0 0 1-1.715 1.707A1.71 1.71 0 0 1 .4 5.976a1.71 1.71 0 0 1 1.714-1.708A1.71 1.71 0 0 1 3.83 5.976ZM90.4 3.415a1.71 1.71 0 0 1-1.714 1.707 1.71 1.71 0 0 1-1.715-1.707 1.71 1.71 0 0 1 1.715-1.708A1.71 1.71 0 0 1 90.4 3.415Zm2.571 4.268a1.71 1.71 0 0 1-1.714 1.708 1.71 1.71 0 0 1-1.714-1.708 1.71 1.71 0 0 1 1.714-1.707 1.71 1.71 0 0 1 1.714 1.707Zm0 5.123a1.71 1.71 0 0 1-1.714 1.708 1.71 1.71 0 0 1-1.714-1.708 1.71 1.71 0 0 1 1.714-1.707 1.71 1.71 0 0 1 1.714 1.707Zm0 5.123a1.71 1.71 0 0 1-1.714 1.707 1.71 1.71 0 0 1-1.714-1.707 1.71 1.71 0 0 1 1.714-1.708 1.71 1.71 0 0 1 1.714 1.708Zm0 5.122a1.71 1.71 0 0 1-1.714 1.708 1.71 1.71 0 0 1-1.714-1.708 1.71 1.71 0 0 1 1.714-1.707 1.71 1.71 0 0 1 1.714 1.707Zm0 5.123a1.71 1.71 0 0 1-1.714 1.707 1.71 1.71 0 0 1-1.714-1.707 1.71 1.71 0 0 1 1.714-1.708 1.71 1.71 0 0 1 1.714 1.708Zm0 5.122a1.71 1.71 0 0 1-1.714 1.708 1.71 1.71 0 0 1-1.714-1.708 1.71 1.71 0 0 1 1.714-1.707 1.71 1.71 0 0 1 1.714 1.707Zm0 5.123a1.71 1.71 0 0 1-1.714 1.707 1.71 1.71 0 0 1-1.714-1.707 1.71 1.71 0 0 1 1.714-1.708 1.71 1.71 0 0 1 1.714 1.708Zm0 10.245a1.71 1.71 0 0 1-1.714 1.708 1.71 1.71 0 0 1-1.714-1.708 1.71 1.71 0 0 1 1.714-1.708 1.71 1.71 0 0 1 1.714 1.708Zm-5.142-.854a1.71 1.71 0 0 1-1.715 1.708A1.71 1.71 0 0 1 84.4 47.81a1.71 1.71 0 0 1 1.714-1.707 1.71 1.71 0 0 1 1.715 1.707Zm-5.143.854a1.71 1.71 0 0 1-1.715 1.708 1.711 1.711 0 0 1-1.714-1.708c0-.943.768-1.708 1.714-1.708a1.71 1.71 0 0 1 1.715 1.708ZM78.4 51.225a1.71 1.71 0 0 1-1.714 1.708 1.71 1.71 0 0 1-1.715-1.708 1.71 1.71 0 0 1 1.715-1.707 1.71 1.71 0 0 1 1.714 1.707Zm-3.429 4.269a1.71 1.71 0 0 1-1.714 1.708 1.71 1.71 0 0 1-1.714-1.708 1.71 1.71 0 0 1 1.714-1.707 1.71 1.71 0 0 1 1.714 1.707Zm-1.714 5.123a1.71 1.71 0 0 1-1.714 1.707 1.71 1.71 0 0 1-1.714-1.707 1.71 1.71 0 0 1 1.714-1.708 1.71 1.71 0 0 1 1.714 1.708Zm0 5.123a1.71 1.71 0 0 1-1.714 1.707 1.71 1.71 0 0 1-1.714-1.708 1.71 1.71 0 0 1 1.714-1.707 1.71 1.71 0 0 1 1.714 1.707Zm.857 5.122a1.71 1.71 0 0 1-1.714 1.707 1.71 1.71 0 0 1-1.714-1.707 1.71 1.71 0 0 1 1.714-1.708 1.71 1.71 0 0 1 1.714 1.708Zm3.429 3.415a1.71 1.71 0 0 1-1.714 1.707 1.71 1.71 0 0 1-1.715-1.707 1.71 1.71 0 0 1 1.715-1.708c.946 0 1.714.765 1.714 1.708Zm4.286 2.561a1.71 1.71 0 0 1-1.715 1.708 1.71 1.71 0 0 1-1.714-1.708 1.71 1.71 0 0 1 1.714-1.707 1.71 1.71 0 0 1 1.715 1.707Zm-4.779 3.109a1.708 1.708 0 0 1-1.444 1.94 1.713 1.713 0 0 1-1.948-1.44 1.709 1.709 0 0 1 1.445-1.939 1.713 1.713 0 0 1 1.947 1.439Zm-2.763 4.723a1.708 1.708 0 0 1-1.444 1.94 1.713 1.713 0 0 1-1.947-1.439 1.709 1.709 0 0 1 1.444-1.94 1.713 1.713 0 0 1 1.947 1.44Zm-2.763 4.724a1.709 1.709 0 0 1-1.444 1.94 1.713 1.713 0 0 1-1.947-1.439 1.709 1.709 0 0 1 1.444-1.94 1.713 1.713 0 0 1 1.947 1.44Zm-2.762 4.724a1.709 1.709 0 0 1-1.445 1.94 1.713 1.713 0 0 1-1.947-1.44 1.708 1.708 0 0 1 1.444-1.939 1.713 1.713 0 0 1 1.948 1.439Zm-2.763 4.723a1.708 1.708 0 0 1-1.444 1.94 1.714 1.714 0 0 1-1.948-1.439 1.709 1.709 0 0 1 1.445-1.94 1.713 1.713 0 0 1 1.947 1.44Zm20.972-21.149a1.71 1.71 0 0 1-1.714 1.708 1.71 1.71 0 0 1-1.714-1.708 1.71 1.71 0 0 1 1.714-1.708 1.71 1.71 0 0 1 1.714 1.708Zm5.143 0A1.71 1.71 0 0 1 90.4 79.4a1.71 1.71 0 0 1-1.714-1.708 1.71 1.71 0 0 1 1.714-1.708 1.71 1.71 0 0 1 1.714 1.708Zm5.143-2.562a1.71 1.71 0 0 1-1.714 1.708 1.71 1.71 0 0 1-1.714-1.707 1.71 1.71 0 0 1 1.714-1.708 1.71 1.71 0 0 1 1.714 1.708Zm3.429-4.268c0 .943-.768 1.707-1.715 1.707a1.711 1.711 0 0 1-1.714-1.707c0-.943.768-1.708 1.714-1.708.947 0 1.715.765 1.715 1.708Zm1.714-5.122c0 .942-.768 1.707-1.714 1.707a1.711 1.711 0 0 1-1.715-1.708 1.71 1.71 0 0 1 1.715-1.707 1.71 1.71 0 0 1 1.714 1.707Zm0-5.123a1.71 1.71 0 0 1-1.714 1.707 1.71 1.71 0 0 1-1.715-1.707c0-.943.768-1.708 1.715-1.708.946 0 1.714.765 1.714 1.708Zm-1.714-5.123c0 .943-.768 1.708-1.715 1.708a1.711 1.711 0 0 1-1.714-1.708 1.71 1.71 0 0 1 1.714-1.707c.947 0 1.715.764 1.715 1.707Zm-3.429-4.269a1.71 1.71 0 0 1-1.714 1.708 1.71 1.71 0 0 1-1.714-1.708 1.71 1.71 0 0 1 1.714-1.707 1.71 1.71 0 0 1 1.714 1.707ZM3.829 67.447a1.71 1.71 0 0 1-1.715 1.707A1.71 1.71 0 0 1 .4 67.447a1.71 1.71 0 0 1 1.714-1.708 1.71 1.71 0 0 1 1.715 1.708Zm1.714 5.123a1.71 1.71 0 0 1-1.714 1.707 1.71 1.71 0 0 1-1.715-1.708 1.71 1.71 0 0 1 1.715-1.707 1.71 1.71 0 0 1 1.714 1.707ZM8.114 2.56A1.71 1.71 0 0 1 6.4 4.269a1.71 1.71 0 0 1-1.714-1.707A1.71 1.71 0 0 1 6.4.853a1.71 1.71 0 0 1 1.714 1.708Zm-4.285 8.539a1.71 1.71 0 0 1-1.715 1.707A1.71 1.71 0 0 1 .4 11.1a1.71 1.71 0 0 1 1.714-1.71 1.71 1.71 0 0 1 1.715 1.707Zm0 25.612a1.71 1.71 0 0 1-1.715 1.708A1.71 1.71 0 0 1 .4 36.71a1.71 1.71 0 0 1 1.714-1.707A1.71 1.71 0 0 1 3.83 36.71Zm0-20.49a1.71 1.71 0 0 1-1.715 1.708A1.71 1.71 0 0 1 .4 16.22a1.71 1.71 0 0 1 1.714-1.707A1.71 1.71 0 0 1 3.83 16.22Zm0 25.613a1.71 1.71 0 0 1-1.715 1.707A1.71 1.71 0 0 1 .4 41.835a1.71 1.71 0 0 1 1.714-1.708 1.71 1.71 0 0 1 1.715 1.708Zm0-20.49a1.71 1.71 0 0 1-1.715 1.707A1.71 1.71 0 0 1 .4 21.344a1.71 1.71 0 0 1 1.714-1.708 1.71 1.71 0 0 1 1.715 1.708Zm0 25.613a1.71 1.71 0 0 1-1.715 1.707A1.71 1.71 0 0 1 .4 46.956a1.71 1.71 0 0 1 1.714-1.707 1.71 1.71 0 0 1 1.715 1.707Zm0-20.491a1.71 1.71 0 0 1-1.715 1.708A1.71 1.71 0 0 1 .4 26.466a1.71 1.71 0 0 1 1.714-1.707 1.71 1.71 0 0 1 1.715 1.707Zm0 25.614a1.71 1.71 0 0 1-1.715 1.707A1.71 1.71 0 0 1 .4 52.079a1.71 1.71 0 0 1 1.714-1.707 1.71 1.71 0 0 1 1.715 1.707Zm0-20.491a1.71 1.71 0 0 1-1.715 1.707A1.71 1.71 0 0 1 .4 31.59a1.71 1.71 0 0 1 1.714-1.708A1.71 1.71 0 0 1 3.83 31.59Zm0 25.613a1.71 1.71 0 0 1-1.715 1.707A1.71 1.71 0 0 1 .4 57.202a1.71 1.71 0 0 1 1.714-1.708 1.71 1.71 0 0 1 1.715 1.708Zm0 5.122a1.71 1.71 0 0 1-1.715 1.708A1.71 1.71 0 0 1 .4 62.324a1.71 1.71 0 0 1 1.714-1.707 1.71 1.71 0 0 1 1.715 1.707Zm6.857 11.099a1.71 1.71 0 0 1-1.715 1.708 1.71 1.71 0 0 1-1.714-1.708 1.71 1.71 0 0 1 1.714-1.707 1.71 1.71 0 0 1 1.715 1.707Zm10.285 0a1.71 1.71 0 0 1-1.714 1.708 1.71 1.71 0 0 1-1.714-1.708 1.71 1.71 0 0 1 1.714-1.707 1.71 1.71 0 0 1 1.714 1.707ZM18.4 1.707a1.71 1.71 0 0 1-1.714 1.708 1.71 1.71 0 0 1-1.715-1.708A1.71 1.71 0 0 1 16.686 0 1.71 1.71 0 0 1 18.4 1.707Zm12.857 71.716a1.71 1.71 0 0 1-1.714 1.708 1.71 1.71 0 0 1-1.714-1.708 1.71 1.71 0 0 1 1.714-1.707 1.71 1.71 0 0 1 1.714 1.707ZM28.686 1.707a1.71 1.71 0 0 1-1.715 1.708 1.711 1.711 0 0 1-1.714-1.708A1.71 1.71 0 0 1 26.971 0a1.71 1.71 0 0 1 1.715 1.707Zm12.857 71.716c0 .943-.768 1.708-1.714 1.708a1.71 1.71 0 0 1-1.715-1.708 1.71 1.71 0 0 1 1.715-1.707 1.71 1.71 0 0 1 1.714 1.707ZM38.971 1.707a1.71 1.71 0 0 1-1.714 1.708 1.71 1.71 0 0 1-1.714-1.708A1.71 1.71 0 0 1 37.257 0a1.71 1.71 0 0 1 1.714 1.707Zm12.858 71.716a1.71 1.71 0 0 1-1.715 1.708 1.71 1.71 0 0 1-1.714-1.708 1.71 1.71 0 0 1 1.714-1.707 1.71 1.71 0 0 1 1.715 1.707Zm5.142 0a1.71 1.71 0 0 1-1.714 1.708 1.71 1.71 0 0 1-1.714-1.708 1.71 1.71 0 0 1 1.714-1.707 1.71 1.71 0 0 1 1.714 1.707Zm5.143 0a1.71 1.71 0 0 1-1.714 1.708 1.71 1.71 0 0 1-1.714-1.708 1.71 1.71 0 0 1 1.714-1.707 1.71 1.71 0 0 1 1.714 1.707ZM49.257 1.707a1.71 1.71 0 0 1-1.714 1.708 1.71 1.71 0 0 1-1.714-1.708A1.71 1.71 0 0 1 47.543 0a1.71 1.71 0 0 1 1.714 1.707Zm10.286 0c0 .943-.768 1.708-1.714 1.708a1.71 1.71 0 0 1-1.715-1.708A1.71 1.71 0 0 1 57.83 0a1.71 1.71 0 0 1 1.714 1.707Zm10.286 0a1.71 1.71 0 0 1-1.715 1.708A1.71 1.71 0 0 1 66.4 1.707 1.71 1.71 0 0 1 68.114 0a1.71 1.71 0 0 1 1.715 1.707Zm10.285 0A1.71 1.71 0 0 1 78.4 3.415a1.71 1.71 0 0 1-1.714-1.708A1.71 1.71 0 0 1 78.4 0a1.71 1.71 0 0 1 1.714 1.707ZM15.829 73.423a1.71 1.71 0 0 1-1.715 1.708 1.71 1.71 0 0 1-1.714-1.708 1.71 1.71 0 0 1 1.714-1.707 1.71 1.71 0 0 1 1.715 1.707ZM13.257 1.707a1.71 1.71 0 0 1-1.714 1.708 1.71 1.71 0 0 1-1.714-1.708A1.71 1.71 0 0 1 11.543 0a1.71 1.71 0 0 1 1.714 1.707Zm12.857 71.716a1.71 1.71 0 0 1-1.714 1.708 1.71 1.71 0 0 1-1.714-1.708 1.71 1.71 0 0 1 1.714-1.707 1.71 1.71 0 0 1 1.714 1.707ZM23.543 1.707c0 .943-.768 1.708-1.714 1.708a1.71 1.71 0 0 1-1.715-1.708A1.71 1.71 0 0 1 21.83 0a1.71 1.71 0 0 1 1.714 1.707ZM36.4 73.423a1.71 1.71 0 0 1-1.714 1.708 1.71 1.71 0 0 1-1.715-1.708 1.71 1.71 0 0 1 1.715-1.707 1.71 1.71 0 0 1 1.714 1.707ZM33.829 1.707a1.71 1.71 0 0 1-1.715 1.708A1.71 1.71 0 0 1 30.4 1.707 1.71 1.71 0 0 1 32.114 0a1.71 1.71 0 0 1 1.715 1.707Zm12.857 71.716a1.71 1.71 0 0 1-1.715 1.708 1.71 1.71 0 0 1-1.714-1.708 1.71 1.71 0 0 1 1.714-1.707 1.71 1.71 0 0 1 1.715 1.707ZM44.114 1.707A1.71 1.71 0 0 1 42.4 3.415a1.71 1.71 0 0 1-1.714-1.708A1.71 1.71 0 0 1 42.4 0a1.71 1.71 0 0 1 1.714 1.707Zm10.286 0a1.71 1.71 0 0 1-1.714 1.708 1.71 1.71 0 0 1-1.715-1.708A1.71 1.71 0 0 1 52.686 0 1.71 1.71 0 0 1 54.4 1.707Zm10.286 0a1.71 1.71 0 0 1-1.715 1.708 1.711 1.711 0 0 1-1.714-1.708A1.71 1.71 0 0 1 62.971 0a1.71 1.71 0 0 1 1.715 1.707Zm10.285 0a1.71 1.71 0 0 1-1.714 1.708 1.71 1.71 0 0 1-1.714-1.708A1.71 1.71 0 0 1 73.257 0a1.71 1.71 0 0 1 1.714 1.707Zm10.286 0a1.71 1.71 0 0 1-1.714 1.708 1.71 1.71 0 0 1-1.714-1.708A1.71 1.71 0 0 1 83.543 0a1.71 1.71 0 0 1 1.714 1.707Zm-72.679 8.965a1.778 1.778 0 1 1-3.556.001 1.778 1.778 0 0 1 3.556 0Zm10.667 0a1.778 1.778 0 1 1-3.557.001 1.778 1.778 0 0 1 3.557 0Zm-5.333 0a1.778 1.778 0 1 1-3.557.001 1.778 1.778 0 0 1 3.557 0Z"/></svg>