<svg width="24" height="25" viewBox="0 0 24 25" fill="none" xmlns="http://www.w3.org/2000/svg">
<path d="M19.74 21.25C19.74 21.94 19.194 22.5 18.519 22.5C17.844 22.5 17.296 21.94 17.296 21.25C17.296 20.56 17.843 20 18.519 20C19.194 20 19.74 20.56 19.74 21.25ZM15.667 21.25C15.667 21.94 15.12 22.5 14.444 22.5C13.769 22.5 13.222 21.94 13.222 21.25C13.222 20.56 13.769 20 14.444 20C15.119 20 15.667 20.56 15.667 21.25ZM9.963 21.25C9.963 21.94 9.416 22.5 8.741 22.5C8.066 22.5 7.519 21.94 7.519 21.25C7.519 20.56 8.066 20 8.741 20C9.416 20 9.963 20.56 9.963 21.25ZM5.889 21.25C5.889 21.94 5.342 22.5 4.667 22.5C3.992 22.5 3.444 21.94 3.444 21.25C3.444 20.56 3.992 20 4.667 20C5.342 20 5.889 20.56 5.889 21.25ZM5.889 17.083C5.889 17.773 5.342 18.333 4.667 18.333C3.992 18.333 3.444 17.773 3.444 17.083C3.444 16.393 3.992 15.833 4.667 15.833C5.342 15.833 5.889 16.393 5.889 17.083ZM19.74 17.083C19.74 17.773 19.194 18.333 18.519 18.333C17.844 18.333 17.296 17.773 17.296 17.083C17.296 16.393 17.843 15.833 18.519 15.833C19.194 15.833 19.74 16.393 19.74 17.083ZM23 13.75C23 14.44 22.453 15 21.778 15C21.103 15 20.556 14.44 20.556 13.75C20.556 13.06 21.103 12.5 21.778 12.5C22.453 12.5 23 13.06 23 13.75ZM20.556 11.25C20.556 11.94 20.008 12.5 19.333 12.5C18.658 12.5 18.111 11.94 18.111 11.25C18.111 10.56 18.658 10 19.333 10C20.008 10 20.556 10.56 20.556 11.25ZM18.111 8.75C18.111 9.44 17.564 10 16.889 10C16.214 10 15.667 9.44 15.667 8.75C15.667 8.06 16.214 7.5 16.889 7.5C17.564 7.5 18.111 8.06 18.111 8.75ZM15.667 6.25C15.667 6.94 15.12 7.5 14.444 7.5C13.769 7.5 13.222 6.94 13.222 6.25C13.222 5.56 13.769 5 14.444 5C15.119 5 15.667 5.56 15.667 6.25ZM13.222 3.75C13.222 4.44 12.675 5 12 5C11.325 5 10.778 4.44 10.778 3.75C10.778 3.06 11.325 2.5 12 2.5C12.675 2.5 13.222 3.06 13.222 3.75ZM3.444 13.75C3.444 14.44 2.897 15 2.222 15C1.547 15 1 14.44 1 13.75C1 13.06 1.547 12.5 2.222 12.5C2.897 12.5 3.444 13.06 3.444 13.75ZM5.889 11.25C5.889 11.94 5.342 12.5 4.667 12.5C3.992 12.5 3.444 11.94 3.444 11.25C3.444 10.56 3.992 10 4.667 10C5.342 10 5.889 10.56 5.889 11.25ZM8.333 8.75C8.333 9.44 7.786 10 7.111 10C6.436 10 5.889 9.44 5.889 8.75C5.889 8.06 6.436 7.5 7.11 7.5C7.785 7.5 8.332 8.06 8.332 8.75H8.333ZM10.778 6.25C10.778 6.94 10.231 7.5 9.556 7.5C8.881 7.5 8.333 6.94 8.333 6.25C8.333 5.56 8.881 5 9.556 5C10.231 5 10.778 5.56 10.778 6.25Z" fill="black"/>
</svg>
