<svg width="25" height="25" viewBox="0 0 25 25" fill="none" xmlns="http://www.w3.org/2000/svg">
<path d="M12.2681 2.17432C11.2792 2.17432 10.3125 2.46756 9.49022 3.01697C8.66797 3.56638 8.02711 4.34727 7.64867 5.2609C7.27023 6.17453 7.17121 7.17986 7.36414 8.14977C7.55707 9.11967 8.03327 10.0106 8.73253 10.7099C9.4318 11.4091 10.3227 11.8853 11.2926 12.0782C12.2625 12.2712 13.2679 12.1722 14.1815 11.7937C15.0951 11.4153 15.876 10.7744 16.4254 9.95217C16.9748 9.12992 17.2681 8.16322 17.2681 7.17432C17.2681 5.84823 16.7413 4.57646 15.8036 3.63878C14.8659 2.7011 13.5941 2.17432 12.2681 2.17432ZM12.2681 10.1743C11.6747 10.1743 11.0947 9.99837 10.6014 9.66873C10.108 9.33908 9.72349 8.87055 9.49643 8.32237C9.26936 7.77419 9.20995 7.17099 9.32571 6.58905C9.44147 6.0071 9.72719 5.47255 10.1467 5.053C10.5663 4.63344 11.1009 4.34772 11.6828 4.23196C12.2647 4.11621 12.8679 4.17562 13.4161 4.40268C13.9643 4.62974 14.4328 5.01426 14.7625 5.50761C15.0921 6.00095 15.2681 6.58097 15.2681 7.17432C15.2681 7.96997 14.952 8.73303 14.3894 9.29564C13.8268 9.85825 13.0637 10.1743 12.2681 10.1743ZM21.2681 21.1743V20.1743C21.2681 18.3178 20.5306 16.5373 19.2178 15.2246C17.9051 13.9118 16.1246 13.1743 14.2681 13.1743H10.2681C8.41155 13.1743 6.63107 13.9118 5.31832 15.2246C4.00556 16.5373 3.26807 18.3178 3.26807 20.1743V21.1743H5.26807V20.1743C5.26807 18.8482 5.79485 17.5765 6.73253 16.6388C7.67021 15.7011 8.94198 15.1743 10.2681 15.1743H14.2681C15.5941 15.1743 16.8659 15.7011 17.8036 16.6388C18.7413 17.5765 19.2681 18.8482 19.2681 20.1743V21.1743H21.2681Z" fill="white"/>
</svg>
